<svg xmlns="http://www.w3.org/2000/svg" viewBox="0 0 1470 500"><defs><style>.cls-1{isolation:isolate;}.cls-19,.cls-2,.cls-32{fill:#fff;}.cls-10,.cls-13,.cls-16,.cls-18,.cls-3,.cls-7{mix-blend-mode:multiply;}.cls-16,.cls-3,.cls-5{opacity:0.4;}.cls-4,.cls-5{fill:#f5dba9;}.cls-6{fill:#ffbd69;}.cls-11,.cls-7{fill:#606060;}.cls-10,.cls-7{opacity:0.2;}.cls-8{fill:#2e3442;}.cls-21,.cls-35,.cls-42,.cls-9{fill:#284289;}.cls-12,.cls-33,.cls-40{fill:#c10c44;}.cls-13{opacity:0.3;}.cls-14,.cls-18{opacity:0.5;}.cls-15,.cls-16{fill:#ef8229;}.cls-17{fill:none;stroke:#fff;stroke-miterlimit:10;stroke-width:2.03px;mix-blend-mode:soft-light;}.cls-19{font-size:14.39px;font-family:Montserrat-Bold, Montserrat Bold;font-weight:700;}.cls-20{letter-spacing:-0.01em;}.cls-21{font-size:12px;font-family:Montserrat-Medium, Montserrat Medium;font-weight:500;}.cls-22{letter-spacing:-0.01em;}.cls-23{letter-spacing:-0.01em;}.cls-24{letter-spacing:0em;}.cls-25{letter-spacing:-0.01em;}.cls-26{letter-spacing:0.01em;}.cls-27{letter-spacing:-0.01em;}.cls-28{letter-spacing:0.01em;}.cls-29{letter-spacing:0em;}.cls-30{letter-spacing:0em;}.cls-31{letter-spacing:0em;}.cls-32{font-size:36.21px;letter-spacing:0.18em;}.cls-32,.cls-35,.cls-40,.cls-42{font-family:Montserrat-Black, Montserrat Black;font-weight:800;}.cls-33{font-size:32.71px;font-family:Montserrat-SemiBold, Montserrat SemiBold;font-weight:600;}.cls-34{letter-spacing:-0.02em;}.cls-35{font-size:70px;}.cls-36{letter-spacing:-0.01em;}.cls-37{letter-spacing:-0.01em;}.cls-38{letter-spacing:-0.08em;}.cls-39{letter-spacing:0em;}.cls-40{font-size:27.51px;}.cls-41{letter-spacing:-0.04em;}.cls-42{font-size:16.02px;}.cls-43{letter-spacing:-0.08em;}.cls-44{letter-spacing:0em;}.cls-45{letter-spacing:-0.04em;}</style></defs><g class="cls-1"><g id="BANNER_2" data-name="BANNER 2"><path class="cls-2" d="M0,532.22v500H1470v-500Z" transform="translate(0 -532.22)"/><g class="cls-3"><path class="cls-4" d="M608.36,1032.22H1470V532.41l-472.15-.19c-174.7,46.1-114.64,267.68-194.49,331.4C749.36,896.46,577.36,836.23,608.36,1032.22Z" transform="translate(0 -532.22)"/></g><path class="cls-5" d="M0,685.25s84.59,13.44,131.86-77.09,153.65,5.28,219.65-75.94H0Z" transform="translate(0 -532.22)"/><path class="cls-6" d="M263.83,532.22H428.1S347.54,601.29,263.83,532.22Z" transform="translate(0 -532.22)"/><path class="cls-6" d="M200.63,1032.22H0V966.45C98.79,958.08,172.35,1008.8,200.63,1032.22Z" transform="translate(0 -532.22)"/><path class="cls-6" d="M1470,925.18v107H505.29S835.87,810.3,1470,925.18Z" transform="translate(0 -532.22)"/><path class="cls-7" d="M1461.26,968.5s-179.25,37.59-398,37.59-394-1.7-394-1.7,179.25-73.49,398-73.49S1461.26,968.5,1461.26,968.5Z" transform="translate(0 -532.22)"/><path class="cls-8" d="M1253.32,744.18c1.53-.09,2.38-1.47,2.23-3.53-1-13.63.56-28.65,5.93-40.9a34.75,34.75,0,0,1,12.21-15.27,31.4,31.4,0,0,1,16.2-5c5.53-.11,11,.86,15.76,3.89s8.69,7.81,11.32,13.94c4.84,11.28,6.1,25.72,5.12,39.4-.14,2,.9,3.09,2.6,3.07s2.82-.9,2.88-3.09a127.55,127.55,0,0,0-1-20.32,76.27,76.27,0,0,0-6-22.37c-3.15-6.69-7.65-12.31-13.09-15.47-5.39-3.32-11.45-4.24-17.36-4a34.57,34.57,0,0,0-17.8,5.36,37.21,37.21,0,0,0-8,7.26,47.81,47.81,0,0,0-6.17,10,82.41,82.41,0,0,0-6.54,23.66,130.39,130.39,0,0,0-1.21,20.79C1250.49,743.67,1251.79,744.26,1253.32,744.18Z" transform="translate(0 -532.22)"/><path class="cls-9" d="M1433.32,967.75H1122.89c18.54-97.25,30.85-166.53,33-232.24l195.52-15.44,45.24,7.56c0,.06,0,.11,0,.17a1534.26,1534.26,0,0,0,33.67,227q1,4.26,2,8.57C1432.64,964.83,1433,966.28,1433.32,967.75Z" transform="translate(0 -532.22)"/><g class="cls-10"><path class="cls-11" d="M1144,850q-2.51,16-5.48,33.09l84.63,84.63h38.58Z" transform="translate(0 -532.22)"/><path class="cls-11" d="M1184.38,733.26l234.49,234.49h14.45c-.34-1.47-.68-2.92-1-4.38q-1-4.3-2-8.57-2.07-9.13-4-18.14L1220.13,730.44Z" transform="translate(0 -532.22)"/><path class="cls-11" d="M1125.23,967.75h38.58l-34.41-34.41q-2.94,15.7-6.13,32.45Z" transform="translate(0 -532.22)"/><path class="cls-11" d="M1154.45,762.64c-.83,11.51-1.94,23.22-3.32,35.26L1321,967.75h38.58Z" transform="translate(0 -532.22)"/><path class="cls-11" d="M1396.66,727.63l-26.6-4.44,28.56,28.56q-1.08-12.19-1.95-24C1396.67,727.74,1396.66,727.69,1396.66,727.63Z" transform="translate(0 -532.22)"/><path class="cls-11" d="M1310.85,723.28l-35.76,2.82,137.53,137.52q-3.76-23.18-6.66-45.23Z" transform="translate(0 -532.22)"/></g><path class="cls-7" d="M1433.32,967.75l-54.62-36.69-8.27,36.69s-19-173.31-19-247.68l45.24,7.56c0,.06,0,.11,0,.17,4.66,67.37,13.72,139.24,33.67,227q1,4.26,2,8.57C1432.64,964.83,1433,966.28,1433.32,967.75Z" transform="translate(0 -532.22)"/><path class="cls-7" d="M1378.7,931.07l-8.27,36.68s-19-173.3-19-247.67C1353.71,754,1378.7,931.07,1378.7,931.07Z" transform="translate(0 -532.22)"/><path class="cls-8" d="M1206.57,743.45c1.53-.09,2.38-1.47,2.22-3.54-1-13.62.57-28.65,5.94-40.9a34.71,34.71,0,0,1,12.21-15.26,31.4,31.4,0,0,1,16.2-5c5.52-.11,11,.85,15.75,3.89s8.7,7.8,11.33,13.94c4.84,11.28,6.09,25.72,5.12,39.39-.14,2,.9,3.1,2.6,3.08s2.81-.9,2.88-3.1a127.42,127.42,0,0,0-1-20.31,76.26,76.26,0,0,0-6-22.37c-3.16-6.69-7.65-12.31-13.09-15.48s-11.45-4.23-17.36-4a34.57,34.57,0,0,0-17.8,5.36,37,37,0,0,0-8,7.26,48.45,48.45,0,0,0-6.18,10,82.8,82.8,0,0,0-6.54,23.67,130.38,130.38,0,0,0-1.2,20.79C1203.74,742.94,1205,743.53,1206.57,743.45Z" transform="translate(0 -532.22)"/><path class="cls-2" d="M1106.28,668.49a7.25,7.25,0,1,1-7.52-7A7.25,7.25,0,0,1,1106.28,668.49Z" transform="translate(0 -532.22)"/><path class="cls-2" d="M1202.72,664.77a7.24,7.24,0,1,1-7.51-7A7.23,7.23,0,0,1,1202.72,664.77Z" transform="translate(0 -532.22)"/><path class="cls-8" d="M1099.38,671.53c2.06-.06,3.25-1.92,3.13-4.77-.85-18.8,1.92-39.42,9.61-56.06a47.61,47.61,0,0,1,17-20.51A41.42,41.42,0,0,1,1151,584c7.41.09,14.75,1.64,21,6,6.26,4.21,11.33,11.11,14.61,19.67,6,15.73,7.12,35.66,5.26,54.44-.27,2.81,1.08,4.3,3.36,4.34s3.81-1.12,4-4.14a179.77,179.77,0,0,0-.49-28c-1-10.92-3.22-21.64-7.16-31.05s-9.75-17.26-16.91-21.84c-7.09-4.8-15.17-6.31-23.11-6.26a45.37,45.37,0,0,0-24.06,6.64,49.77,49.77,0,0,0-11,9.67,65.9,65.9,0,0,0-8.69,13.54c-4.9,10-7.91,21.17-9.72,32.3a185,185,0,0,0-2.47,28.57C1095.61,670.71,1097.33,671.58,1099.38,671.53Z" transform="translate(0 -532.22)"/><path class="cls-2" d="M1054,659.3a7.25,7.25,0,1,1-7.52-6.95A7.25,7.25,0,0,1,1054,659.3Z" transform="translate(0 -532.22)"/><circle class="cls-2" cx="1143.24" cy="655.86" r="7.24" transform="translate(-168.59 -3.83) rotate(-24.29)"/><path class="cls-8" d="M1047.13,662.34c2.06-.05,3.25-1.91,3.12-4.77-.84-18.8,1.93-39.41,9.62-56.05a47.49,47.49,0,0,1,17-20.51,41.31,41.31,0,0,1,21.91-6.15c7.41.08,14.75,1.64,21,6,6.27,4.21,11.34,11.11,14.61,19.67,6,15.72,7.13,35.66,5.27,54.44-.28,2.8,1.08,4.3,3.35,4.34s3.81-1.12,4-4.14a181.14,181.14,0,0,0-.49-28c-1-10.91-3.22-21.63-7.16-31s-9.75-17.25-16.91-21.84c-7.09-4.79-15.17-6.31-23.11-6.25a45.45,45.45,0,0,0-24.06,6.63,50,50,0,0,0-11,9.67,66.17,66.17,0,0,0-8.69,13.54c-4.9,10-7.91,21.17-9.73,32.3a186.34,186.34,0,0,0-2.46,28.57C1043.35,661.53,1045.08,662.4,1047.13,662.34Z" transform="translate(0 -532.22)"/><polygon class="cls-12" points="1317.59 443.93 1301.73 443.82 1266.92 443.58 1201.7 443.14 922.85 441.23 963.25 107.65 1217.65 95.66 1224.22 106.48 1224.22 106.49 1233.32 106.33 1262.03 105.83 1276.66 105.57 1317.59 443.93"/><g class="cls-13"><polygon class="cls-11" points="972.58 107.22 951.32 441.43 953.32 441.44 974.59 107.12 972.58 107.22"/><polyline class="cls-11" points="1043.33 442.06 1045.32 442.07 1051.86 103.48 1049.86 103.57"/><polygon class="cls-11" points="1022.81 104.85 1020.8 104.94 1008.68 441.82 1010.68 441.84 1022.81 104.85"/><polygon class="cls-11" points="1003.72 105.75 1001.71 105.84 985.95 441.67 987.95 441.68 1003.72 105.75"/><polygon class="cls-11" points="1264.13 105.8 1262.12 105.83 1299.57 443.81 1301.58 443.82 1264.13 105.8"/><polygon class="cls-11" points="1270.34 443.61 1272.35 443.62 1240.64 106.21 1238.63 106.24 1270.34 443.61"/><polygon class="cls-11" points="1147.77 98.96 1145.77 99.05 1158.14 442.85 1160.14 442.86 1147.77 98.96"/><polygon class="cls-11" points="1195.54 96.71 1193.54 96.8 1215.58 443.24 1217.59 443.25 1195.54 96.71"/><polyline class="cls-11" points="1180.9 443 1182.9 443.01 1166.71 98.06 1164.72 98.16"/><polygon class="cls-11" points="1070.9 102.58 1068.9 102.67 1066.07 442.21 1068.07 442.23 1070.9 102.58"/><polygon class="cls-11" points="1118.87 100.32 1116.87 100.41 1123.47 442.61 1125.47 442.62 1118.87 100.32"/><polyline class="cls-11" points="1100.72 442.45 1102.72 442.47 1099.88 101.22 1097.88 101.31"/></g><polygon class="cls-7" points="1317.59 443.93 1255.52 402.4 1238.17 443.14 1217.65 95.66 1224.22 106.49 1224.22 106.5 1276.67 105.57 1317.59 443.93"/><polygon class="cls-7" points="1255.52 402.4 1238.17 443.14 1217.65 95.66 1224.22 106.49 1224.22 106.5 1255.52 402.4"/><path class="cls-2" d="M1016.93,788c1.54,0,2.43-1.39,2.33-3.46-.63-13.65,1.44-28.62,7.17-40.7A34.77,34.77,0,0,1,1039.1,729a31.35,31.35,0,0,1,16.34-4.47c5.53.06,11,1.19,15.63,4.37s8.46,8.06,10.9,14.28c4.5,11.41,5.31,25.89,3.93,39.53-.21,2,.8,3.12,2.5,3.15s2.84-.81,3-3a127.25,127.25,0,0,0-.36-20.33,76.49,76.49,0,0,0-5.34-22.55c-3-6.78-7.28-12.53-12.62-15.86s-11.31-4.58-17.23-4.54a34.6,34.6,0,0,0-18,4.82,36.76,36.76,0,0,0-8.16,7,47.56,47.56,0,0,0-6.48,9.83,82.59,82.59,0,0,0-7.26,23.45,131.47,131.47,0,0,0-1.83,20.75C1014.12,787.41,1015.4,788,1016.93,788Z" transform="translate(0 -532.22)"/><polygon class="cls-6" points="1182.01 453.09 854.97 453.09 887.85 245.54 1099.22 233.14 1111.41 243.17 1147.89 237.85 1147.9 237.85 1182.01 453.09"/><g class="cls-14"><path class="cls-15" d="M996,966.05c.34-.32.67-.65,1-1l-.78-.12-4.76-.72a.33.33,0,0,1-.19-.14c-.13-.24-.24-.49-.36-.73-.55-1.13-1.09-2.26-1.64-3.38-.15-.31-.32-.6-.47-.89l-.07.11L986.3,964a.29.29,0,0,1-.19.13l-4.91.69-.63.09,0,0,.09.1,3.83,3.77a.28.28,0,0,1,.1.31c-.07.31-.12.63-.18,1l-.6,3.44c-.06.35-.12.7-.19,1.07l.09,0,4.86-2.53a.26.26,0,0,1,.27,0c.29.17.59.32.88.48l3.9,2.08.15,0a.9.9,0,0,0,0-.18q-.43-2.64-.88-5.28a.28.28,0,0,1,.1-.29Z" transform="translate(0 -532.22)"/><path class="cls-15" d="M1027.68,781.85c-1.59-.23-3.18-.47-4.76-.72a.28.28,0,0,1-.19-.13c-.13-.24-.24-.49-.36-.74-.55-1.12-1.09-2.25-1.64-3.38-.15-.3-.32-.59-.47-.88a.52.52,0,0,0-.07.11l-2.43,4.86a.23.23,0,0,1-.19.13c-1.64.24-3.27.47-4.91.69l-.63.1,0,0,.09.09,3.83,3.77a.29.29,0,0,1,.1.31c-.07.32-.12.64-.18,1l-.6,3.43c-.06.35-.13.71-.19,1.08l.09,0,4.86-2.53a.24.24,0,0,1,.27,0l.88.47,3.9,2.08a1.16,1.16,0,0,0,.15.06c0-.08,0-.13,0-.18q-.43-2.65-.88-5.29a.28.28,0,0,1,.1-.29l3-2.85,1-1Z" transform="translate(0 -532.22)"/><path class="cls-15" d="M996.22,912.49l-4.76-.72a.33.33,0,0,1-.19-.14c-.13-.24-.24-.49-.36-.73l-1.64-3.39c-.15-.3-.32-.59-.47-.88l-.07.11c-.81,1.62-1.62,3.25-2.43,4.86a.27.27,0,0,1-.19.14l-4.91.69-.63.09,0,0,.09.1,3.83,3.76a.29.29,0,0,1,.1.31c-.07.32-.12.64-.18,1l-.6,3.44c-.06.35-.12.7-.19,1.07,0,0,.07,0,.09,0l4.86-2.53a.26.26,0,0,1,.27,0l.88.48,3.9,2.08.15.05a.82.82,0,0,0,0-.18c-.29-1.76-.58-3.53-.88-5.29a.3.3,0,0,1,.1-.29l3-2.85,1-1Z" transform="translate(0 -532.22)"/><path class="cls-15" d="M1027.68,834.29l-4.76-.72a.33.33,0,0,1-.19-.14c-.13-.24-.24-.49-.36-.73l-1.64-3.39c-.15-.3-.32-.59-.47-.88l-.07.11c-.81,1.62-1.62,3.25-2.43,4.86a.27.27,0,0,1-.19.14l-4.91.69-.63.09,0,0,.09.1,3.83,3.76a.29.29,0,0,1,.1.31c-.07.32-.12.64-.18,1l-.6,3.44c-.06.35-.13.7-.19,1.07,0,0,.07,0,.09,0l4.86-2.53a.26.26,0,0,1,.27,0l.88.48,3.9,2.08.15,0c0-.08,0-.13,0-.18-.29-1.76-.58-3.53-.88-5.29a.28.28,0,0,1,.1-.29l3-2.85,1-1Z" transform="translate(0 -532.22)"/><path class="cls-15" d="M996.22,860.05c-1.59-.23-3.18-.47-4.76-.72a.28.28,0,0,1-.19-.13c-.13-.24-.24-.49-.36-.74-.55-1.12-1.09-2.25-1.64-3.38-.15-.3-.32-.59-.47-.88a.52.52,0,0,0-.07.11l-2.43,4.86a.23.23,0,0,1-.19.13c-1.64.24-3.27.47-4.91.69l-.63.1,0,0a.75.75,0,0,0,.09.09l3.83,3.77a.29.29,0,0,1,.1.31c-.07.32-.12.64-.18,1l-.6,3.43c-.06.35-.12.71-.19,1.07l.09,0,4.86-2.53a.24.24,0,0,1,.27,0l.88.47,3.9,2.08.15.06a.82.82,0,0,0,0-.18q-.43-2.65-.88-5.29a.3.3,0,0,1,.1-.29l3-2.85,1-1Z" transform="translate(0 -532.22)"/><path class="cls-15" d="M963.9,940.29l1.05-1-.79-.13c-1.59-.23-3.17-.47-4.76-.72a.31.31,0,0,1-.19-.13l-.36-.74-1.64-3.38c-.15-.3-.32-.59-.47-.88a.23.23,0,0,0-.06.11q-1.23,2.43-2.44,4.86a.29.29,0,0,1-.19.13c-1.64.24-3.27.47-4.91.69l-.63.1,0,0,.08.09,3.83,3.77a.29.29,0,0,1,.1.31c-.07.32-.12.64-.18,1l-.6,3.43c-.06.35-.12.7-.19,1.07l.09,0,4.86-2.53a.24.24,0,0,1,.27,0l.88.47,3.9,2.08.15,0a.79.79,0,0,0,0-.17q-.44-2.65-.88-5.29a.29.29,0,0,1,.1-.29Z" transform="translate(0 -532.22)"/><path class="cls-15" d="M1027.68,886.72c-1.59-.24-3.18-.47-4.76-.72a.33.33,0,0,1-.19-.14c-.13-.24-.24-.49-.36-.73-.55-1.13-1.09-2.26-1.64-3.38-.15-.31-.32-.6-.47-.89l-.07.11-2.43,4.87a.29.29,0,0,1-.19.13l-4.91.69-.63.09,0,0,.09.09,3.83,3.77a.28.28,0,0,1,.1.31c-.07.31-.12.63-.18.95l-.6,3.44c-.06.35-.13.7-.19,1.07l.09,0,4.86-2.53a.24.24,0,0,1,.27,0l.88.47,3.9,2.08.15.05c0-.07,0-.13,0-.18q-.43-2.64-.88-5.28a.27.27,0,0,1,.1-.29l3-2.85,1-1Z" transform="translate(0 -532.22)"/><path class="cls-15" d="M964.16,886.72,959.4,886a.33.33,0,0,1-.19-.14l-.36-.73c-.55-1.13-1.09-2.26-1.64-3.38-.15-.31-.32-.6-.47-.89a.39.39,0,0,0-.06.11c-.82,1.62-1.63,3.25-2.44,4.87a.29.29,0,0,1-.19.13l-4.91.69-.63.09,0,0,.08.09,3.83,3.77a.28.28,0,0,1,.1.31c-.07.31-.12.63-.18.95l-.6,3.44c-.06.35-.12.7-.19,1.07l.09,0,4.86-2.53a.24.24,0,0,1,.27,0l.88.47,3.9,2.08.15.05a.9.9,0,0,0,0-.18q-.44-2.64-.88-5.28a.28.28,0,0,1,.1-.29l3-2.85,1.05-1Z" transform="translate(0 -532.22)"/><path class="cls-15" d="M996.22,807.62c-1.59-.24-3.18-.47-4.76-.72a.31.31,0,0,1-.19-.13c-.13-.25-.24-.49-.36-.74-.55-1.13-1.09-2.26-1.64-3.38-.15-.3-.32-.59-.47-.89l-.07.11-2.43,4.87a.29.29,0,0,1-.19.13l-4.91.69-.63.1,0,0,.09.09,3.83,3.77a.29.29,0,0,1,.1.31c-.07.31-.12.64-.18,1l-.6,3.43c-.06.35-.12.7-.19,1.07l.09,0,4.86-2.53a.24.24,0,0,1,.27,0l.88.47,3.9,2.08.15.05a.72.72,0,0,0,0-.17q-.43-2.66-.88-5.29a.28.28,0,0,1,.1-.29l3-2.85,1-1Z" transform="translate(0 -532.22)"/><path class="cls-15" d="M1059.47,966.05l1-1-.78-.12-4.76-.72a.3.3,0,0,1-.19-.14c-.13-.24-.24-.49-.36-.73-.55-1.13-1.09-2.26-1.65-3.38-.14-.31-.31-.6-.46-.89l-.07.11-2.43,4.87a.29.29,0,0,1-.19.13l-4.91.69-.64.09,0,0,.09.1,3.83,3.77a.28.28,0,0,1,.1.31c-.07.31-.12.63-.18,1-.2,1.15-.4,2.3-.61,3.44-.06.35-.12.7-.18,1.07l.09,0,4.86-2.53a.25.25,0,0,1,.26,0l.89.48,3.9,2.08.15,0c0-.07,0-.13,0-.18q-.45-2.64-.88-5.28a.28.28,0,0,1,.09-.29C1057.51,968,1058.49,967,1059.47,966.05Z" transform="translate(0 -532.22)"/><path class="cls-15" d="M1091.2,886.72c-1.59-.24-3.18-.47-4.76-.72a.3.3,0,0,1-.19-.14c-.13-.24-.24-.49-.36-.73l-1.65-3.38c-.14-.31-.31-.6-.46-.89l-.07.11-2.43,4.87a.29.29,0,0,1-.19.13l-4.91.69-.64.09,0,0,.09.09,3.83,3.77a.29.29,0,0,1,.09.31c-.06.31-.11.63-.17.95-.2,1.15-.4,2.3-.61,3.44-.06.35-.12.7-.18,1.07l.09,0,4.86-2.53a.23.23,0,0,1,.26,0l.89.47,3.9,2.08.15.05c0-.07,0-.13,0-.18q-.45-2.64-.88-5.28a.28.28,0,0,1,.09-.29c1-1,2-1.9,3-2.85l1-1Z" transform="translate(0 -532.22)"/><path class="cls-15" d="M1090.93,940.29l1-1-.78-.13c-1.59-.23-3.18-.47-4.76-.72a.29.29,0,0,1-.19-.13c-.13-.24-.24-.49-.36-.74l-1.65-3.38c-.14-.3-.31-.59-.46-.88a.35.35,0,0,0-.07.11l-2.43,4.86a.29.29,0,0,1-.19.13l-4.91.69-.64.1,0,0,.09.09,3.83,3.77a.3.3,0,0,1,.09.31c-.06.32-.11.64-.17,1-.2,1.14-.4,2.29-.61,3.43-.06.35-.12.7-.18,1.07l.09,0,4.86-2.53a.23.23,0,0,1,.26,0l.89.47,3.9,2.08.15,0c0-.07,0-.12,0-.17q-.45-2.65-.88-5.29a.28.28,0,0,1,.09-.29C1089,942.19,1090,941.24,1090.93,940.29Z" transform="translate(0 -532.22)"/><path class="cls-15" d="M1091.2,834.29l-4.76-.72a.3.3,0,0,1-.19-.14c-.13-.24-.24-.49-.36-.73l-1.65-3.39c-.14-.3-.31-.59-.46-.88l-.07.11-2.43,4.86a.27.27,0,0,1-.19.14l-4.91.69-.64.09,0,0,.09.1,3.83,3.76a.3.3,0,0,1,.09.31c-.06.32-.11.64-.17,1-.2,1.15-.4,2.29-.61,3.44-.06.35-.12.7-.18,1.07,0,0,.07,0,.09,0l4.86-2.53a.24.24,0,0,1,.26,0l.89.48,3.9,2.08.15,0c0-.08,0-.13,0-.18-.3-1.76-.59-3.53-.88-5.29a.29.29,0,0,1,.09-.29c1-.95,2-1.9,3-2.85l1-1Z" transform="translate(0 -532.22)"/><path class="cls-15" d="M886.9,783.78l2,2a.29.29,0,0,1,.1.31c-.07.32-.12.64-.17,1-.21,1.15-.41,2.29-.61,3.43-.06.35-.12.71-.19,1.08l.09,0L893,789a.24.24,0,0,1,.27,0l.89.47,3.89,2.08s.1,0,.16.06,0-.13,0-.18q-.44-2.65-.88-5.29a.3.3,0,0,1,.1-.29l3-2.85,1-1-.79-.13c-1.59-.23-3.17-.47-4.76-.72a.28.28,0,0,1-.19-.13l-.36-.74-1.39-2.86-1.47.08c-.58,1.17-1.16,2.33-1.75,3.49a.23.23,0,0,1-.19.13l-3.28.47Z" transform="translate(0 -532.22)"/><path class="cls-15" d="M1091.2,781.85c-1.59-.23-3.18-.47-4.76-.72a.26.26,0,0,1-.19-.13c-.13-.24-.24-.49-.36-.74l-1.65-3.38c-.14-.3-.31-.59-.46-.88a.52.52,0,0,0-.07.11l-2.43,4.86a.23.23,0,0,1-.19.13l-4.91.69-.64.1,0,0,.09.09,3.83,3.77a.3.3,0,0,1,.09.31c-.06.32-.11.64-.17,1-.2,1.15-.4,2.29-.61,3.43l-.18,1.08.09,0,4.86-2.53a.23.23,0,0,1,.26,0l.89.47,3.9,2.08a1.16,1.16,0,0,0,.15.06c0-.08,0-.13,0-.18q-.45-2.65-.88-5.29a.29.29,0,0,1,.09-.29c1-1,2-1.9,3-2.85l1-1Z" transform="translate(0 -532.22)"/><path class="cls-15" d="M1059.74,807.62c-1.59-.24-3.18-.47-4.76-.72a.29.29,0,0,1-.19-.13c-.13-.25-.24-.49-.36-.74-.55-1.13-1.09-2.26-1.65-3.38-.14-.3-.31-.59-.46-.89l-.07.11-2.43,4.87a.29.29,0,0,1-.19.13l-4.91.69-.64.1s0,0,0,0a.76.76,0,0,1,.09.09l3.83,3.77a.29.29,0,0,1,.1.31c-.07.31-.12.64-.18,1-.2,1.14-.4,2.29-.61,3.43-.06.35-.12.7-.18,1.07l.09,0,4.86-2.53a.23.23,0,0,1,.26,0l.89.47,3.9,2.08.15.05c0-.07,0-.13,0-.17q-.45-2.66-.88-5.29a.28.28,0,0,1,.09-.29c1-1,2-1.9,3-2.85l1-1Z" transform="translate(0 -532.22)"/><path class="cls-15" d="M1027.42,940.29l1-1-.78-.13c-1.59-.23-3.18-.47-4.76-.72a.31.31,0,0,1-.19-.13c-.13-.24-.24-.49-.36-.74l-1.64-3.38c-.15-.3-.32-.59-.47-.88a.35.35,0,0,0-.07.11l-2.43,4.86a.29.29,0,0,1-.19.13c-1.64.24-3.27.47-4.91.69l-.63.1,0,0,.09.09,3.83,3.77a.29.29,0,0,1,.1.31c-.07.32-.12.64-.18,1l-.6,3.43c-.06.35-.13.7-.19,1.07l.09,0,4.86-2.53a.24.24,0,0,1,.27,0l.88.47,3.9,2.08.15,0c0-.07,0-.12,0-.17q-.43-2.65-.88-5.29a.27.27,0,0,1,.1-.29Z" transform="translate(0 -532.22)"/><path class="cls-15" d="M1059.74,860.05c-1.59-.23-3.18-.47-4.76-.72a.26.26,0,0,1-.19-.13c-.13-.24-.24-.49-.36-.74-.55-1.12-1.09-2.25-1.65-3.38-.14-.3-.31-.59-.46-.88a.52.52,0,0,0-.07.11l-2.43,4.86a.23.23,0,0,1-.19.13l-4.91.69-.64.1,0,0,.09.09L1048,864a.29.29,0,0,1,.1.31c-.07.32-.12.64-.18,1-.2,1.14-.4,2.29-.61,3.43l-.18,1.07.09,0,4.86-2.53a.23.23,0,0,1,.26,0l.89.47,3.9,2.08.15.06c0-.08,0-.13,0-.18q-.45-2.65-.88-5.29a.29.29,0,0,1,.09-.29c1-.95,2-1.9,3-2.85l1-1Z" transform="translate(0 -532.22)"/><path class="cls-15" d="M1059.74,912.49l-4.76-.72a.3.3,0,0,1-.19-.14c-.13-.24-.24-.49-.36-.73-.55-1.13-1.09-2.26-1.65-3.39-.14-.3-.31-.59-.46-.88l-.07.11c-.81,1.62-1.62,3.25-2.43,4.86a.27.27,0,0,1-.19.14l-4.91.69-.64.09,0,0,.09.1,3.83,3.76a.29.29,0,0,1,.1.31c-.07.32-.12.64-.18,1-.2,1.15-.4,2.29-.61,3.44-.06.35-.12.7-.18,1.07,0,0,.07,0,.09,0l4.86-2.53a.24.24,0,0,1,.26,0l.89.48,3.9,2.08.15.05c0-.08,0-.13,0-.18-.3-1.76-.59-3.53-.88-5.29a.29.29,0,0,1,.09-.29c1-1,2-1.9,3-2.85l1-1Z" transform="translate(0 -532.22)"/><path class="cls-15" d="M964.16,834.29l-4.76-.72a.33.33,0,0,1-.19-.14l-.36-.73-1.64-3.39c-.15-.3-.32-.59-.47-.88a.39.39,0,0,0-.06.11c-.82,1.62-1.63,3.25-2.44,4.86a.27.27,0,0,1-.19.14l-4.91.69-.63.09,0,0,.08.1,3.83,3.76a.29.29,0,0,1,.1.31c-.07.32-.12.64-.18,1l-.6,3.44c-.06.35-.12.7-.19,1.07,0,0,.07,0,.09,0l4.86-2.53a.26.26,0,0,1,.27,0l.88.48,3.9,2.08.15,0a.82.82,0,0,0,0-.18c-.29-1.76-.58-3.53-.88-5.29a.3.3,0,0,1,.1-.29l3-2.85,1.05-1Z" transform="translate(0 -532.22)"/><path class="cls-15" d="M1154.72,886.72c-1.59-.24-3.18-.47-4.76-.72a.3.3,0,0,1-.19-.14c-.13-.24-.24-.49-.36-.73l-1.65-3.38c-.14-.31-.31-.6-.47-.89,0,0,0,.07-.06.11-.81,1.62-1.62,3.25-2.44,4.87a.29.29,0,0,1-.18.13l-4.91.69-.64.09,0,0,.09.09,3.83,3.77a.29.29,0,0,1,.09.31c-.06.31-.11.63-.17.95-.2,1.15-.4,2.3-.61,3.44-.06.35-.12.7-.19,1.07l.1,0,4.86-2.53a.23.23,0,0,1,.26,0l.89.47,3.89,2.08.16.05a1.41,1.41,0,0,1,0-.18c-.3-1.76-.59-3.52-.89-5.28a.3.3,0,0,1,.1-.29l3-2.85,1-1Z" transform="translate(0 -532.22)"/><path class="cls-15" d="M1154.72,834.29l-4.76-.72a.3.3,0,0,1-.19-.14c-.13-.24-.24-.49-.36-.73l-1.65-3.39c-.14-.3-.31-.59-.47-.88,0,0,0,.07-.06.11-.81,1.62-1.62,3.25-2.44,4.86a.28.28,0,0,1-.18.14l-4.91.69-.64.09,0,0,.09.1,3.83,3.76a.3.3,0,0,1,.09.31c-.06.32-.11.64-.17,1-.2,1.15-.4,2.29-.61,3.44-.06.35-.12.7-.19,1.07,0,0,.08,0,.1,0l4.86-2.53a.24.24,0,0,1,.26,0l.89.48,3.89,2.08.16,0a1.62,1.62,0,0,1,0-.18c-.3-1.76-.59-3.53-.89-5.29a.32.32,0,0,1,.1-.29l3-2.85,1-1Z" transform="translate(0 -532.22)"/><path class="cls-15" d="M1123,913.62l1-1-.78-.12-4.76-.72a.3.3,0,0,1-.19-.14c-.13-.24-.24-.49-.36-.73l-1.65-3.39c-.14-.3-.31-.59-.46-.88l-.07.11c-.81,1.62-1.62,3.25-2.43,4.86a.29.29,0,0,1-.19.14l-4.91.69-.64.09,0,0,.09.1,3.83,3.76a.3.3,0,0,1,.09.31c-.06.32-.11.64-.17,1-.2,1.15-.4,2.29-.61,3.44-.06.35-.12.7-.19,1.07,0,0,.08,0,.1,0l4.86-2.53a.24.24,0,0,1,.26,0l.89.48,3.9,2.08.15.05a1.62,1.62,0,0,1,0-.18c-.3-1.76-.59-3.53-.89-5.29a.32.32,0,0,1,.1-.29Z" transform="translate(0 -532.22)"/><path class="cls-15" d="M1154.45,940.29l1-1-.78-.13c-1.59-.23-3.18-.47-4.76-.72a.29.29,0,0,1-.19-.13c-.13-.24-.24-.49-.36-.74l-1.65-3.38c-.14-.3-.31-.59-.47-.88a.91.91,0,0,0-.06.11q-1.21,2.43-2.44,4.86a.29.29,0,0,1-.18.13l-4.91.69-.64.1,0,0,.09.09,3.83,3.77a.3.3,0,0,1,.09.31c-.06.32-.11.64-.17,1-.2,1.14-.4,2.29-.61,3.43-.06.35-.12.7-.19,1.07l.1,0,4.86-2.53a.23.23,0,0,1,.26,0l.89.47,3.89,2.08.16,0a1.28,1.28,0,0,1,0-.17c-.3-1.77-.59-3.53-.89-5.29a.31.31,0,0,1,.1-.29Z" transform="translate(0 -532.22)"/><path class="cls-15" d="M1178.21,961.33c-.45.9-.9,1.81-1.36,2.71a.29.29,0,0,1-.18.13l-4.91.69-.64.09,0,0,.09.1,3.83,3.77a.29.29,0,0,1,.09.31c-.07.31-.11.63-.17,1-.21,1.15-.41,2.3-.61,3.44-.06.35-.12.7-.19,1.07l.1,0c1.61-.85,3.24-1.69,4.85-2.53a.26.26,0,0,1,.27,0l.53.29Z" transform="translate(0 -532.22)"/><path class="cls-15" d="M1147.29,776l-.06.11q-1.21,2.43-2.44,4.86a.23.23,0,0,1-.18.13l-4.91.69-.64.1,0,0,.09.09,3.83,3.77a.3.3,0,0,1,.09.31c-.06.32-.11.64-.17,1-.2,1.15-.4,2.29-.61,3.43-.06.35-.12.71-.19,1.08l.1,0,4.86-2.53a.23.23,0,0,1,.26,0l.89.47,3,1.6-1.65-10.45c-.06-.12-.12-.23-.17-.35l-1.65-3.38C1147.62,776.58,1147.45,776.29,1147.29,776Z" transform="translate(0 -532.22)"/><path class="cls-15" d="M964.16,781.85c-1.59-.23-3.17-.47-4.76-.72a.28.28,0,0,1-.19-.13l-.36-.74c-.55-1.12-1.09-2.25-1.64-3.38-.15-.3-.32-.59-.47-.88a.29.29,0,0,0-.06.11q-1.23,2.43-2.44,4.86a.23.23,0,0,1-.19.13c-1.64.24-3.27.47-4.91.69l-.63.1,0,0,.08.09,3.83,3.77a.29.29,0,0,1,.1.31c-.07.32-.12.64-.18,1l-.6,3.43c-.06.35-.12.71-.19,1.08l.09,0,4.86-2.53a.24.24,0,0,1,.27,0l.88.47,3.9,2.08a1.16,1.16,0,0,0,.15.06.82.82,0,0,0,0-.18q-.44-2.65-.88-5.29a.3.3,0,0,1,.1-.29l3-2.85,1.05-1Z" transform="translate(0 -532.22)"/><path class="cls-15" d="M1107.73,965.09l3.83,3.77a.29.29,0,0,1,.09.31c-.06.31-.11.63-.17,1-.2,1.15-.4,2.3-.61,3.44-.06.35-.12.7-.19,1.07l.1,0,4.86-2.53a.25.25,0,0,1,.26,0l.89.48,3.9,2.08.15,0a1.41,1.41,0,0,1,0-.18c-.3-1.76-.59-3.52-.89-5.28a.3.3,0,0,1,.1-.29c1-.95,2-1.9,3-2.86l1-1-.78-.12-4.76-.72a.3.3,0,0,1-.19-.14c-.13-.24-.24-.49-.36-.73L1116.3,960c-.14-.31-.31-.6-.46-.89l-.07.11-2.43,4.87a.31.31,0,0,1-.19.13l-4.91.69-.64.09,0,0Z" transform="translate(0 -532.22)"/><path class="cls-15" d="M1123.26,807.62c-1.59-.24-3.18-.47-4.76-.72a.29.29,0,0,1-.19-.13c-.13-.25-.24-.49-.36-.74l-1.65-3.38c-.14-.3-.31-.59-.46-.89l-.07.11-2.43,4.87a.31.31,0,0,1-.19.13l-4.91.69-.64.1,0,0,.09.09,3.83,3.77a.3.3,0,0,1,.09.31c-.06.31-.11.64-.17,1-.2,1.14-.4,2.29-.61,3.43-.06.35-.12.7-.19,1.07l.1,0,4.86-2.53a.23.23,0,0,1,.26,0l.89.47,3.9,2.08.15.05a1.49,1.49,0,0,1,0-.17c-.3-1.77-.59-3.53-.89-5.29a.3.3,0,0,1,.1-.29l3-2.85,1-1Z" transform="translate(0 -532.22)"/><path class="cls-15" d="M1123.26,860.05c-1.59-.23-3.18-.47-4.76-.72a.26.26,0,0,1-.19-.13c-.13-.24-.24-.49-.36-.74l-1.65-3.38c-.14-.3-.31-.59-.46-.88a.52.52,0,0,0-.07.11l-2.43,4.86a.25.25,0,0,1-.19.13l-4.91.69-.64.1,0,0,.09.09,3.83,3.77a.3.3,0,0,1,.09.31c-.06.32-.11.64-.17,1-.2,1.14-.4,2.29-.61,3.43-.06.35-.12.71-.19,1.07l.1,0,4.86-2.53a.23.23,0,0,1,.26,0l.89.47,3.9,2.08.15.06a1.62,1.62,0,0,1,0-.18c-.3-1.77-.59-3.53-.89-5.29a.32.32,0,0,1,.1-.29l3-2.85,1-1Z" transform="translate(0 -532.22)"/><path class="cls-15" d="M932.7,912.49l-4.76-.72a.33.33,0,0,1-.19-.14l-.36-.73-1.64-3.39c-.15-.3-.32-.59-.47-.88a.39.39,0,0,0-.06.11l-2.44,4.86a.27.27,0,0,1-.19.14l-4.91.69-.63.09,0,0,.08.1,3.83,3.76a.29.29,0,0,1,.1.31c-.07.32-.12.64-.18,1l-.6,3.44c-.06.35-.12.7-.19,1.07,0,0,.07,0,.09,0l4.86-2.53a.26.26,0,0,1,.27,0l.88.48,3.9,2.08.15.05a.82.82,0,0,0,0-.18c-.29-1.76-.58-3.53-.88-5.29a.3.3,0,0,1,.1-.29l3-2.85,1-1Z" transform="translate(0 -532.22)"/><path class="cls-15" d="M861.56,972.07a.26.26,0,0,1,.27,0c.29.17.59.32.89.48l3.89,2.08.16,0,0-.18q-.43-2.64-.88-5.28a.28.28,0,0,1,.1-.29l3-2.86,1.05-1-.79-.12-4.76-.72a.28.28,0,0,1-.18-.14c-.13-.24-.25-.49-.37-.73-.54-1.13-1.09-2.26-1.64-3.38-.15-.31-.31-.6-.47-.89l-.06.11c-.81,1.62-1.62,3.25-2.44,4.87a.29.29,0,0,1-.19.13l-.77.11-.74,4.68a.35.35,0,0,1,0,.21c-.07.31-.12.63-.17,1-.12.65-.23,1.3-.35,1.94l-.4,2.55h0Z" transform="translate(0 -532.22)"/><path class="cls-15" d="M932.7,807.62l-4.76-.72a.31.31,0,0,1-.19-.13l-.36-.74c-.55-1.13-1.09-2.26-1.64-3.38-.15-.3-.32-.59-.47-.89a.39.39,0,0,0-.06.11c-.81,1.63-1.63,3.25-2.44,4.87a.29.29,0,0,1-.19.13l-4.91.69-.63.1,0,0,.08.09,3.83,3.77a.29.29,0,0,1,.1.31c-.07.31-.12.64-.18,1l-.6,3.43c-.06.35-.12.7-.19,1.07l.09,0,4.86-2.53a.24.24,0,0,1,.27,0l.88.47,3.9,2.08.15.05a.72.72,0,0,0,0-.17q-.43-2.66-.88-5.29a.28.28,0,0,1,.1-.29l3-2.85c.34-.33.67-.66,1-1Z" transform="translate(0 -532.22)"/><path class="cls-15" d="M932.44,966.05l1-1-.79-.12-4.76-.72a.33.33,0,0,1-.19-.14l-.36-.73c-.55-1.13-1.09-2.26-1.64-3.38-.15-.31-.32-.6-.47-.89a.39.39,0,0,0-.06.11L922.78,964a.29.29,0,0,1-.19.13l-4.91.69-.63.09,0,0,.08.1,3.83,3.77a.28.28,0,0,1,.1.31c-.07.31-.12.63-.18,1l-.6,3.44c-.06.35-.12.7-.19,1.07l.09,0,4.86-2.53a.26.26,0,0,1,.27,0c.29.17.59.32.88.48l3.9,2.08.15,0a.9.9,0,0,0,0-.18q-.43-2.64-.88-5.28a.28.28,0,0,1,.1-.29Z" transform="translate(0 -532.22)"/><path class="cls-15" d="M932.7,860.05c-1.59-.23-3.17-.47-4.76-.72a.28.28,0,0,1-.19-.13l-.36-.74c-.55-1.12-1.09-2.25-1.64-3.38-.15-.3-.32-.59-.47-.88a.29.29,0,0,0-.06.11l-2.44,4.86a.23.23,0,0,1-.19.13c-1.64.24-3.27.47-4.91.69l-.63.1,0,0,.08.09L921,864a.29.29,0,0,1,.1.31c-.07.32-.12.64-.18,1l-.6,3.43c-.06.35-.12.71-.19,1.07l.09,0,4.86-2.53a.24.24,0,0,1,.27,0l.88.47,3.9,2.08.15.06a.82.82,0,0,0,0-.18q-.43-2.65-.88-5.29a.3.3,0,0,1,.1-.29l3-2.85,1-1Z" transform="translate(0 -532.22)"/><path class="cls-15" d="M900.38,940.29l1-1-.79-.13c-1.59-.23-3.17-.47-4.76-.72a.31.31,0,0,1-.19-.13l-.36-.74c-.54-1.13-1.09-2.25-1.64-3.38-.15-.3-.31-.59-.47-.88a.36.36,0,0,0-.06.11q-1.21,2.43-2.44,4.86a.29.29,0,0,1-.19.13c-1.63.24-3.27.47-4.91.69l-.63.1,0,0,.08.09,3.83,3.77a.29.29,0,0,1,.1.31c-.07.32-.12.64-.17,1-.21,1.14-.41,2.29-.61,3.43-.06.35-.12.7-.19,1.07l.09,0L893,946.3a.24.24,0,0,1,.27,0l.89.47,3.89,2.08.16,0c0-.07,0-.12,0-.17q-.44-2.65-.88-5.29a.29.29,0,0,1,.1-.29Z" transform="translate(0 -532.22)"/><path class="cls-15" d="M900.64,834.29l-4.76-.72a.33.33,0,0,1-.19-.14l-.36-.73c-.54-1.13-1.09-2.26-1.64-3.39-.15-.3-.31-.59-.47-.88l-.06.11c-.81,1.62-1.62,3.25-2.44,4.86a.27.27,0,0,1-.19.14l-4.91.69-.63.09,0,0,.08.1,3.83,3.76a.29.29,0,0,1,.1.31c-.07.32-.12.64-.17,1-.21,1.15-.41,2.29-.61,3.44-.06.35-.12.7-.19,1.07,0,0,.07,0,.09,0l4.86-2.53a.26.26,0,0,1,.27,0l.89.48,3.89,2.08.16,0c0-.08,0-.13,0-.18-.29-1.76-.58-3.53-.88-5.29a.3.3,0,0,1,.1-.29l3-2.85,1-1Z" transform="translate(0 -532.22)"/><path class="cls-15" d="M866.61,922.18l.16.05c0-.08,0-.13,0-.18-.29-1.76-.58-3.53-.88-5.29a.3.3,0,0,1,.1-.29l3-2.85,1.05-1-.79-.12-2.61-.4-1.47,9.28Z" transform="translate(0 -532.22)"/><path class="cls-15" d="M900.64,886.72l-4.76-.72a.33.33,0,0,1-.19-.14l-.36-.73c-.54-1.13-1.09-2.26-1.64-3.38-.15-.31-.31-.6-.47-.89l-.06.11c-.81,1.62-1.62,3.25-2.44,4.87a.29.29,0,0,1-.19.13c-1.63.24-3.27.46-4.91.69l-.63.09,0,0,.08.09,3.83,3.77a.28.28,0,0,1,.1.31c-.07.31-.12.63-.17.95-.21,1.15-.41,2.3-.61,3.44-.06.35-.12.7-.19,1.07l.09,0,4.86-2.53a.24.24,0,0,1,.27,0l.89.47,3.89,2.08.16.05,0-.18q-.44-2.64-.88-5.28a.28.28,0,0,1,.1-.29l3-2.85,1-1Z" transform="translate(0 -532.22)"/></g><polygon class="cls-16" points="1182.01 453.09 1114.91 433.09 1090.31 453.09 1099.22 233.14 1111.41 243.17 1147.89 237.85 1182.01 453.09"/><polygon class="cls-16" points="1114.91 433.09 1090.31 453.09 1099.21 233.14 1111.42 243.17 1114.91 433.09"/><path class="cls-2" d="M970.23,785.86c1.53,0,2.42-1.4,2.32-3.47-.62-13.65,1.44-28.62,7.17-40.7a34.77,34.77,0,0,1,12.67-14.89,31.44,31.44,0,0,1,16.34-4.47c5.53.06,11,1.19,15.64,4.37s8.45,8.06,10.89,14.28c4.5,11.42,5.31,25.89,3.93,39.53-.21,2,.81,3.12,2.5,3.15s2.84-.81,3-3a127.28,127.28,0,0,0-.36-20.33,76.49,76.49,0,0,0-5.34-22.55c-3-6.78-7.28-12.53-12.62-15.86s-11.31-4.58-17.23-4.54a34.6,34.6,0,0,0-18,4.82,37.25,37.25,0,0,0-8.16,7,48,48,0,0,0-6.48,9.83,82.66,82.66,0,0,0-7.26,23.46,131.24,131.24,0,0,0-1.83,20.74C967.41,785.26,968.69,785.9,970.23,785.86Z" transform="translate(0 -532.22)"/><path class="cls-2" d="M872.58,751a4.86,4.86,0,1,1-5.05-4.54A4.79,4.79,0,0,1,872.58,751Z" transform="translate(0 -532.22)"/><path class="cls-2" d="M937.27,748.6a4.86,4.86,0,1,1-5-4.54A4.79,4.79,0,0,1,937.27,748.6Z" transform="translate(0 -532.22)"/><path class="cls-8" d="M868,753c1.38,0,2.18-1.25,2.1-3.11-.57-12.28,1.28-25.74,6.44-36.6a31.39,31.39,0,0,1,11.39-13.4,28.29,28.29,0,0,1,14.7-4c5,.05,9.89,1.07,14.06,3.92s7.6,7.26,9.8,12.84c4,10.27,4.78,23.29,3.53,35.56-.18,1.83.73,2.8,2.25,2.83s2.56-.73,2.68-2.7a115.84,115.84,0,0,0-.33-18.29,68.87,68.87,0,0,0-4.8-20.28c-2.66-6.09-6.55-11.27-11.35-14.26s-10.17-4.12-15.5-4.08a31.1,31.1,0,0,0-16.14,4.33,33.38,33.38,0,0,0-7.34,6.31,43.4,43.4,0,0,0-5.83,8.84,74.34,74.34,0,0,0-6.52,21.1,116.89,116.89,0,0,0-1.65,18.66C865.42,752.48,866.57,753.05,868,753Z" transform="translate(0 -532.22)"/><path class="cls-15" d="M1051.41,998.51H718.26c20.48-98.63,34.54-177.8,35.26-253.13l213.54-12.17,19.35,9.95,29.68-4.29c0,.69,0,1.38.08,2.07,3,77.51,15.21,161.17,33.4,248.79C1050.17,992.65,1050.79,995.57,1051.41,998.51Z" transform="translate(0 -532.22)"/><path class="cls-17" d="M948.07,753.67,767.46,764c-.61,63.72-12.5,130.68-29.83,214.1H940.4C949.4,898.16,952.73,822.74,948.07,753.67Z" transform="translate(0 -532.22)"/><path class="cls-7" d="M931.39,771.64,779.7,780.28c-.51,53.51-10.5,109.75-25.05,179.81H924.94C932.5,893,935.3,829.65,931.39,771.64Z" transform="translate(0 -532.22)"/><path class="cls-7" d="M1051.41,998.51,992,962.89l-34,35.62c10.64-94.47,14.58-183.63,9.07-265.3l19.35,9.95,29.68-4.29c0,.69,0,1.38.08,2.07,2.58,79,14.78,159.36,33.4,248.79C1050.17,992.65,1050.79,995.57,1051.41,998.51Z" transform="translate(0 -532.22)"/><path class="cls-7" d="M992,962.89l-34,35.62c10.64-94.47,14.58-183.63,9.07-265.3l19.35,9.95A2097.05,2097.05,0,0,1,992,962.89Z" transform="translate(0 -532.22)"/><path class="cls-2" d="M830.52,749.13a5.4,5.4,0,1,1-5.6-5A5.32,5.32,0,0,1,830.52,749.13Z" transform="translate(0 -532.22)"/><path class="cls-2" d="M902.45,746.43a5.4,5.4,0,1,1-5.6-5A5.31,5.31,0,0,1,902.45,746.43Z" transform="translate(0 -532.22)"/><path class="cls-8" d="M825.38,751.34c1.53,0,2.42-1.39,2.33-3.46-.63-13.66,1.43-28.62,7.17-40.71a34.81,34.81,0,0,1,12.66-14.89,31.47,31.47,0,0,1,16.35-4.46c5.52.06,11,1.19,15.63,4.36s8.45,8.07,10.9,14.28c4.49,11.42,5.31,25.89,3.93,39.53-.21,2,.8,3.12,2.5,3.15s2.84-.81,3-3a127.37,127.37,0,0,0-.37-20.34,76.42,76.42,0,0,0-5.33-22.54c-3-6.78-7.28-12.53-12.62-15.86s-11.31-4.58-17.23-4.54a34.56,34.56,0,0,0-17.95,4.81,37.06,37.06,0,0,0-8.17,7,48.46,48.46,0,0,0-6.48,9.84A82.9,82.9,0,0,0,824.42,728a131.38,131.38,0,0,0-1.84,20.75C822.56,750.75,823.85,751.38,825.38,751.34Z" transform="translate(0 -532.22)"/><path class="cls-2" d="M996,849.58l-4.92-3.73a4.44,4.44,0,0,1-1-6l3.49-5.12a4.42,4.42,0,0,0-2.33-6.71l-5.91-1.84a4.44,4.44,0,0,1-3-5.33l1.53-6a4.43,4.43,0,0,0-4.5-5.52l-6.17.29a4.41,4.41,0,0,1-4.61-4l-.62-6.16a4.43,4.43,0,0,0-6.11-3.64l-5.71,2.39a4.43,4.43,0,0,1-5.69-2.17l-2.67-5.57a4.43,4.43,0,0,0-7-1.34l-4.55,4.19a4.42,4.42,0,0,1-6.09-.08L925.77,789a4.42,4.42,0,0,0-7,1.13l-2.83,5.5a4.42,4.42,0,0,1-5.76,2L904.53,795a4.42,4.42,0,0,0-6.21,3.46l-.79,6.14a4.42,4.42,0,0,1-4.72,3.84l-6.17-.46a4.42,4.42,0,0,0-4.64,5.39l1.36,6a4.43,4.43,0,0,1-3.12,5.23l-6,1.67a4.43,4.43,0,0,0-2.53,6.65l3.34,5.21a4.42,4.42,0,0,1-1.14,6l-5,3.6a4.44,4.44,0,0,0-.1,7.13l4.92,3.73a4.43,4.43,0,0,1,1,6l-3.49,5.12a4.42,4.42,0,0,0,2.34,6.71l5.91,1.84a4.43,4.43,0,0,1,3,5.33l-1.52,6a4.42,4.42,0,0,0,4.49,5.52l6.17-.31a4.44,4.44,0,0,1,4.61,4l.62,6.16a4.43,4.43,0,0,0,6.11,3.64l5.71-2.39a4.41,4.41,0,0,1,5.69,2.17L917,914a4.42,4.42,0,0,0,7,1.33l4.56-4.18a4.4,4.4,0,0,1,6.08.08l4.43,4.32a4.44,4.44,0,0,0,7-1.14l2.83-5.49a4.41,4.41,0,0,1,5.75-2l5.63,2.55A4.42,4.42,0,0,0,966.5,906l.79-6.14A4.43,4.43,0,0,1,972,896l6.17.46a4.42,4.42,0,0,0,4.64-5.39l-1.36-6a4.44,4.44,0,0,1,3.12-5.24l6-1.66a4.43,4.43,0,0,0,2.53-6.66l-3.34-5.2a4.45,4.45,0,0,1,1.15-6l5-3.6A4.43,4.43,0,0,0,996,849.58Zm-67.76-32.36a6.87,6.87,0,1,1,6-7.64A6.87,6.87,0,0,1,928.24,817.22Z" transform="translate(0 -532.22)"/><path class="cls-12" d="M925.71,806.57a2,2,0,0,1-2-1.55c-1.23-6.13-13.54-61.66,0-70.33,2.25-1.43,4.37.69,4.37.69s-13.75-.37-.49,68.92a1.91,1.91,0,0,1-1.59,2.23A1.64,1.64,0,0,1,925.71,806.57Z" transform="translate(0 -532.22)"/><g class="cls-18"><path class="cls-6" d="M773.11,698.35c-10.3,0-10.31,16,0,16S783.42,698.35,773.11,698.35Z" transform="translate(0 -532.22)"/><path class="cls-6" d="M925.27,560.84c-10.3,0-10.32,16,0,16S935.58,560.84,925.27,560.84Z" transform="translate(0 -532.22)"/><path class="cls-6" d="M1230.91,594.73c-10.3,0-10.32,16,0,16S1241.22,594.73,1230.91,594.73Z" transform="translate(0 -532.22)"/><path class="cls-6" d="M1438.92,655.14c-10.29,0-10.31,16,0,16S1449.24,655.14,1438.92,655.14Z" transform="translate(0 -532.22)"/><path class="cls-6" d="M1416.78,742.13c-5.79,0-5.8,9,0,9S1422.58,742.13,1416.78,742.13Z" transform="translate(0 -532.22)"/><path class="cls-6" d="M1327.63,564.34c-5.79,0-5.8,9,0,9S1333.43,564.34,1327.63,564.34Z" transform="translate(0 -532.22)"/><path class="cls-6" d="M1008.68,585.07c-5.79,0-5.8,9,0,9S1014.48,585.07,1008.68,585.07Z" transform="translate(0 -532.22)"/><path class="cls-6" d="M773.11,602.73c-5.79,0-5.8,9,0,9S778.91,602.73,773.11,602.73Z" transform="translate(0 -532.22)"/></g><path class="cls-12" d="M840,584.86c.19-.63.84-10.94,7.61-13,5.49-1.69,11.72.17,14.74,4.78a13,13,0,0,1,1.75,9.46,36.52,36.52,0,0,1-3.63,10.72,84,84,0,0,1-8.92,14.08.65.65,0,0,1-.66.33,75.88,75.88,0,0,1-20.37-4.65,25.6,25.6,0,0,1-8.47-5.15,12.28,12.28,0,0,1,2.18-19.21C831.24,577.85,839.8,584.76,840,584.86Z" transform="translate(0 -532.22)"/><path class="cls-12" d="M1360.35,638.81c.53-.39,7.17-8.3,13.84-5.95,5.42,1.9,9.33,7.1,9,12.59a13.06,13.06,0,0,1-4.2,8.66,36.69,36.69,0,0,1-9.29,6.47,83.58,83.58,0,0,1-15.53,6,.65.65,0,0,1-.74-.13,76.09,76.09,0,0,1-13.63-15.83,25.62,25.62,0,0,1-3.76-9.17,12.29,12.29,0,0,1,13.16-14.17C1357.47,628,1360.25,638.62,1360.35,638.81Z" transform="translate(0 -532.22)"/><path class="cls-12" d="M916.73,647.86c.29-.32,3.49-6.17,8-5.53a8,8,0,0,1,5.74,12.84,23.42,23.42,0,0,1-5.06,5.27,54.45,54.45,0,0,1-9.06,5.79.42.42,0,0,1-.48,0A49.35,49.35,0,0,1,905.25,658a16.5,16.5,0,0,1-3.54-5.33A7.91,7.91,0,0,1,908.24,642C913.54,641.37,916.65,647.74,916.73,647.86Z" transform="translate(0 -532.22)"/><path class="cls-12" d="M1411.63,577.84c.14-.41.77-7,5.17-8.24a8,8,0,0,1,10.35,9.51,23.48,23.48,0,0,1-2.56,6.84,54.92,54.92,0,0,1-6,8.91.43.43,0,0,1-.44.2,49.36,49.36,0,0,1-13-3.41,16.69,16.69,0,0,1-5.36-3.5,7.92,7.92,0,0,1,1.8-12.34C1406.13,573.14,1411.51,577.77,1411.63,577.84Z" transform="translate(0 -532.22)"/><path class="cls-15" d="M414.28,928.93H306.64a17.4,17.4,0,0,1-17.4-17.4h0a17.4,17.4,0,0,1,17.4-17.4H414.28a17.4,17.4,0,0,1,17.4,17.4h0A17.4,17.4,0,0,1,414.28,928.93Z" transform="translate(0 -532.22)"/><path class="cls-15" d="M246.8,652.47h-97a1.63,1.63,0,0,1-1.64-1.64h0a1.63,1.63,0,0,1,1.64-1.63h97a1.63,1.63,0,0,1,1.63,1.63h0A1.63,1.63,0,0,1,246.8,652.47Z" transform="translate(0 -532.22)"/><path class="cls-15" d="M569.05,652.47h-97a1.63,1.63,0,0,1-1.64-1.64h0a1.63,1.63,0,0,1,1.64-1.63h97a1.63,1.63,0,0,1,1.64,1.63h0A1.63,1.63,0,0,1,569.05,652.47Z" transform="translate(0 -532.22)"/><polygon class="cls-15" points="460.13 137.5 260.73 137.5 272.68 118.66 260.73 99.82 460.13 99.82 448.18 118.66 460.13 137.5"/><text class="cls-19" transform="translate(329.43 383.67)">Shop N<tspan class="cls-20" x="43.68" y="0">o</tspan><tspan x="51.47" y="0">w</tspan></text><text class="cls-21" transform="translate(169.21 304.4)"><tspan class="cls-22">L</tspan><tspan x="5.5" y="0">o</tspan><tspan class="cls-23" x="12.08" y="0">r</tspan><tspan x="15.89" y="0">em ipsum dolor sit ame</tspan><tspan class="cls-24" x="133.13" y="0">t</tspan><tspan x="137.06" y="0">, </tspan><tspan class="cls-25" x="142.09" y="0">c</tspan><tspan x="147.39" y="0">onse</tspan><tspan class="cls-26" x="171.41" y="0">c</tspan><tspan class="cls-27" x="176.94" y="0">t</tspan><tspan x="180.84" y="0">etur adipiscing eli</tspan><tspan class="cls-24" x="269.39" y="0">t</tspan><tspan x="273.33" y="0">. </tspan><tspan class="cls-28" x="278.36" y="0">I</tspan><tspan class="cls-29" x="281.35" y="0">n</tspan><tspan class="cls-25" x="287.96" y="0">t</tspan><tspan x="291.86" y="0">eger quam lo</tspan><tspan class="cls-23" x="358.18" y="0">r</tspan><tspan x="361.98" y="0">em,</tspan><tspan x="69.65" y="17.97">hend</tspan><tspan class="cls-23" x="95.74" y="17.97">r</tspan><tspan x="99.55" y="17.97">e</tspan><tspan class="cls-30" x="105.56" y="17.97">r</tspan><tspan x="109.53" y="17.97">it et odio se</tspan><tspan class="cls-23" x="167.44" y="17.97">d</tspan><tspan x="174.09" y="17.97">, hend</tspan><tspan class="cls-23" x="205.22" y="17.97">r</tspan><tspan x="209.02" y="17.97">e</tspan><tspan class="cls-30" x="215.03" y="17.97">r</tspan><tspan x="219.01" y="17.97">it vulput</tspan><tspan class="cls-31" x="260.96" y="17.97">a</tspan><tspan class="cls-25" x="266.69" y="17.97">t</tspan><tspan x="270.59" y="17.97">e quam.</tspan></text><text class="cls-32" transform="translate(303.24 130.92)">11.11</text><text class="cls-33" transform="translate(138.94 264.25)">ALL ITEMS DIS<tspan class="cls-34" x="193.06" y="0">C</tspan><tspan x="211.35" y="0">OUNT 50%</tspan></text><text class="cls-35" transform="translate(161.39 216.57)">SINGLE<tspan class="cls-36" x="210" y="0">’</tspan><tspan x="223.93" y="0">S </tspan><tspan class="cls-37" x="273.28" y="0">D</tspan><tspan class="cls-38" x="318.91" y="0">A</tspan><tspan class="cls-39" x="356.23" y="0">Y</tspan></text><text class="cls-40" transform="translate(896.03 344.65) rotate(-6.8)"><tspan class="cls-41"> </tspan><tspan x="4.84" y="0">WEEK</tspan></text><g id="only_this" data-name="only this"><text class="cls-42" transform="translate(895.17 319.69) rotate(-6.8)">ON<tspan class="cls-43" x="21.58" y="0">L</tspan><tspan class="cls-44" x="27.79" y="0">Y</tspan><tspan class="cls-45" x="36.46" y="0"> </tspan><tspan x="39.2" y="0">THIS</tspan></text></g></g></g></svg>