<svg xmlns="http://www.w3.org/2000/svg" viewBox="0 0 1470 500.01"><defs><style>.cls-1{isolation:isolate;}.cls-11,.cls-17,.cls-19,.cls-2,.cls-43{fill:#fff;}.cls-3,.cls-5,.cls-8{opacity:0.3;}.cls-4,.cls-5{fill:#ffbd69;}.cls-34,.cls-6{fill:#c10c44;}.cls-21,.cls-33,.cls-7{fill:#284289;}.cls-14,.cls-8,.cls-9{fill:#606060;}.cls-12,.cls-8,.cls-9{mix-blend-mode:multiply;}.cls-9{opacity:0.2;}.cls-10,.cls-13,.cls-38{fill:#ef8229;}.cls-11,.cls-15,.cls-17{mix-blend-mode:soft-light;}.cls-11,.cls-13,.cls-18{opacity:0.5;}.cls-12{opacity:0.8;}.cls-15,.cls-16{fill:#2e3442;}.cls-19{font-size:15px;}.cls-19,.cls-34{font-family:Montserrat-Bold, Montserrat Bold;font-weight:700;}.cls-20{letter-spacing:-0.01em;}.cls-21{font-size:14.06px;font-family:Montserrat-Medium, Montserrat Medium;font-weight:500;}.cls-22{letter-spacing:-0.01em;}.cls-23{letter-spacing:-0.01em;}.cls-24{letter-spacing:0em;}.cls-25{letter-spacing:-0.01em;}.cls-26{letter-spacing:0.01em;}.cls-27{letter-spacing:-0.01em;}.cls-28{letter-spacing:0.01em;}.cls-29{letter-spacing:0em;}.cls-30{letter-spacing:0em;}.cls-31{letter-spacing:0em;}.cls-32{letter-spacing:-0.01em;}.cls-33{font-size:83.99px;}.cls-33,.cls-43{font-family:Montserrat-Black, Montserrat Black;font-weight:800;}.cls-34{font-size:50.7px;}.cls-35{letter-spacing:-0.04em;}.cls-36{letter-spacing:-0.03em;}.cls-37{letter-spacing:0em;}.cls-38{font-size:45px;font-family:Montserrat-SemiBold, Montserrat SemiBold;font-weight:600;}.cls-39{letter-spacing:-0.01em;}.cls-40{letter-spacing:-0.09em;}.cls-41{letter-spacing:-0.01em;}.cls-42{letter-spacing:-0.08em;}.cls-43{font-size:60.72px;}</style></defs><g class="cls-1"><g id="BANNER_1" data-name="BANNER 1"><g id="BACKGROUND"><path id="_Compound_Path_" data-name="&lt;Compound Path&gt;" class="cls-2" d="M1254.37,0H0V500H1470V0Z"/></g><g id="BACKGROUND-2" data-name="BACKGROUND" class="cls-3"><path id="_Compound_Path_2" data-name="&lt;Compound Path&gt;" class="cls-4" d="M1166,0H0V500H1470V0Z"/></g><path class="cls-2" d="M1470,0v90c-161.92,68.27-266.47-40.17-304-90Z"/><path class="cls-2" d="M579.08,392.6c-43.66,32.9-72.75,69.23-90.44,107.41H0V0H573.73C670,72.28,805,222.45,579.08,392.6Z"/><path class="cls-5" d="M60.27,158.27A98,98,0,0,1,0,248.71V67.83A98,98,0,0,1,60.27,158.27Z"/><path class="cls-4" d="M1470,420.54V500H381.28s130.14-93.69,374.08-30.39C985.71,529.38,1223.24,312.49,1470,420.54Z"/><path class="cls-4" d="M525.08,0H776.14S651.91,106.41,525.08,0Z"/><path class="cls-6" d="M206.81,422.86H99.17a17.4,17.4,0,0,1-17.4-17.4h0a17.4,17.4,0,0,1,17.4-17.4H206.81a17.4,17.4,0,0,1,17.4,17.4h0A17.4,17.4,0,0,1,206.81,422.86Z"/><polygon class="cls-7" points="850.48 194.71 811.82 94.46 825.14 76.87 926.46 37.79 965.13 138.05 951.8 155.64 850.48 194.71"/><polygon class="cls-4" points="842.27 121.28 828.97 138.93 833.33 150.24 846.68 132.72 842.27 121.28"/><polygon class="cls-8" points="850.48 194.71 811.82 94.46 825.14 76.87 926.46 37.79 965.13 138.05 951.8 155.64 850.48 194.71"/><polygon class="cls-8" points="850.48 194.71 863.81 177.12 965.13 138.05 951.8 155.64 850.48 194.71"/><polygon class="cls-7" points="965.13 138.05 863.82 177.13 857.12 159.78 825.15 76.87 926.46 37.8 934.72 59.22 965.13 138.05"/><path class="cls-9" d="M823.6,92.05,812,95l-.21-.55L812.94,93l11.38-2.91,9.09,12.58,15-3.85,9.09,12.57,15-3.85,9.1,12.58,15-3.85,9.1,12.58,15-3.85,9.1,12.58,15-3.85,9.09,12.58,6-1.54L958.36,147l-5,1.29-9.09-12.58-15,3.85L920.12,127l-15,3.85L896,118.23l-15,3.85-9.1-12.58-15,3.85-9.09-12.58-15,3.86Zm52.33,81.63-15,3.85L851.8,165l-11.65,3,.64,1.64,10.29-2.63,9.09,12.58,15-3.85,5.38,7.43,1.68-.65ZM827.5,119l15-3.85,9.09,12.58,15-3.85,9.09,12.58,15-3.85,9.09,12.58,15-3.85L924,153.9l15-3.85,5.94,8.21,1.69-.65-6.91-9.55-15,3.85-9.1-12.58-15,3.85-9.09-12.58-15,3.85-9.09-12.58-15,3.85-9.09-12.58-15,3.86-9.09-12.58-3.16.81.63,1.64,1.81-.46ZM862,190.28l-6.29,1.61-9.1-12.58-1.87.48.63,1.64.52-.13,8.59,11.88Zm44.93-140,15-3.85L931.05,59l3.27-.84-.63-1.64-1.92.49-9.1-12.57-15,3.85-1.84-2.54-1.68.65Zm-69,40,15-3.86L862,99l15-3.85,9.09,12.58,15-3.85,9.09,12.58,15-3.85,9.1,12.58,15-3.85,9.1,12.58,4.54-1.17-.63-1.64-3.19.82-9.1-12.58-15,3.85L926,110.61l-15,3.85-9.09-12.58-15,3.85-9.09-12.58-15,3.85-9.09-12.57-15,3.85-9.1-12.58-4,1-.41.16L823.5,79l5.29-1.35Zm67.36,77.78-15,3.85-9.1-12.58-15,3.85L857,150.59l-15,3.85-9.1-12.58-2.51.65.63,1.64,1.17-.3,9.09,12.58,15-3.85,9.1,12.58,15-3.85,9.1,12.58,15-3.85,2.17,3,1.69-.65Zm-67.91-38.56,9.09,12.58,15-3.85,9.09,12.58,15-3.85,9.09,12.58,15-3.85,9.09,12.58.77-.2,13.92-5.37-14,3.58-9.09-12.58-15,3.85L886.32,145l-15,3.85-9.09-12.58-15,3.85-9.09-12.58-12.29,3.15.64,1.64Zm20.77-57.43,9.1,12.57,15-3.85,9.1,12.58,15-3.85,9.1,12.58,15-3.85,9.1,12.58,13.68-3.5-.64-1.65-12.32,3.16-9.1-12.58-15,3.85-9.1-12.58-15,3.85L883,78.79l-15,3.86-9.1-12.58-15,3.85-2.4-3.32-1.68.65,3.36,4.66Zm29.33-5.64L896.53,79l15-3.85,9.09,12.58,15-3.85,9.09,12.58,3.91-1-.63-1.64-2.56.65-9.09-12.58-15,3.85-9.09-12.58-15,3.85-9.1-12.58-15,3.86-5.61-7.76-1.68.65,6.57,9.09Zm30-7.62-15,3.86-8.82-12.2-10.42,4,9.43-2.42,9.09,12.58,15-3.85,9.09,12.58,13-3.34-.63-1.64-11.69,3Z"/><rect class="cls-4" x="841.41" y="100.73" width="107.45" height="13.45" transform="translate(673.29 -766.38) rotate(68.91)"/><rect class="cls-4" x="889" y="53.16" width="12.26" height="108.59" transform="translate(673.27 -766.38) rotate(68.91)"/><polygon class="cls-9" points="965.13 138.05 863.82 177.13 857.12 159.78 934.72 59.22 965.13 138.05"/><polygon class="cls-10" points="1131.87 364.81 1010.96 282.89 1162.68 58.94 1180.19 51.62 1301.1 133.55 1149.37 357.5 1131.87 364.81"/><polygon class="cls-8" points="1301.1 133.54 1273.16 174.78 1185.94 303.52 1149.37 357.49 1131.87 364.81 1010.96 282.89 1027.8 258.02 1115.03 129.28 1162.69 58.94 1180.19 51.63 1301.1 133.54"/><polygon class="cls-8" points="1010.96 282.89 1028.46 275.57 1149.37 357.5 1131.87 364.81 1010.96 282.89"/><rect class="cls-10" x="1091.75" y="69.31" width="146.05" height="270.51" transform="translate(315.23 -618.13) rotate(34.12)"/><path class="cls-11" d="M1255.58,200.73l-6.87,10.13L1024,263.69l3.84-5.67,3-4.47Zm-238.27,86.46,9.33,6.32,197.53-46.43L1231,237Zm33.37,22.61,9.33,6.32,139.62-32.81,6.87-10.13Zm76.08,51.55,23.79-5.59,6.86-10.13-40,9.39Zm-42.71-28.94,9.34,6.33,81.7-19.21L1182,309.4Zm69.5-260-6.87,10.13,58.78-13.81-9.33-6.33ZM1129,108.65l-6.87,10.14,116.69-27.43L1229.5,85Zm167.24,21.61L1079.92,181.1l-6.87,10.14,224.75-52.83,3.3-4.87Zm-191.79,14.62L1097.6,155l174.61-41-9.34-6.32Zm-49.09,72.45-6.86,10.13,224.74-52.83,6.87-10.13Z"/><path class="cls-11" d="M1102.13,344.66l-10.24-6.94-31.4-128,6.27-9.25Zm34.94,18-47.9-195.18-6.26,9.25,45.6,185.83,3.36,2.28Zm18.49-14.27,6.26-9.25-50.24-204.74-6.26,9.25ZM1044.35,233.6l-6.27,9.25,17.2,70.06,10.24,6.94Zm212.28-130.19-10.24-6.94,21.22,86.5,5.55-8.19.72-1.06ZM1220,78.6l-10.24-6.93,35.43,144.38,6.27-9.25Zm-86,22.69-6.26,9.25L1178,315.28l6.27-9.25Zm40.88-47.44,47.92,195.28,6.27-9.26L1183.39,53.8l-3.2-2.17Zm118.37,74.37L1283,121.28l7,28.61,6.27-9.25Zm-136.83-60-6.27,9.25,50.24,204.74,6.27-9.25Z"/><polygon class="cls-9" points="1245.2 216.05 1185.94 303.52 1027.8 258.02 1115.03 129.28 1245.2 216.05"/><polygon class="cls-6" points="1119.52 360.02 950.12 199.57 1038.92 105.82 1056.76 108.19 1226.16 268.64 1137.36 362.39 1119.52 360.02"/><polygon class="cls-2" points="1013.25 132.93 1030.81 135.57 1018.69 148.37 1002.1 144.69 1013.25 132.93"/><polygon class="cls-2" points="984.84 232.46 1002.16 234.31 1015.14 246.61 997.94 244.86 984.84 232.46"/><polygon class="cls-9" points="1119.52 360.02 950.12 199.57 1038.92 105.82 1056.76 108.19 1226.16 268.64 1137.36 362.39 1119.52 360.02"/><polygon class="cls-9" points="950.12 199.57 967.96 201.94 1137.36 362.39 1119.52 360.02 950.12 199.57"/><rect class="cls-6" x="980.4" y="170.72" width="233.33" height="129.13" transform="translate(462.37 -689.95) rotate(43.45)"/><g class="cls-12"><polygon class="cls-9" points="1224.13 266.71 1221.96 264.66 1218.63 276.59 1222.51 272.49 1224.13 266.71"/><path class="cls-9" d="M1204.19,291.83l-13.81,4.23,7-25.12,23.56-7.23-2.19-2.08-20.53,6.29,5.69-20.34-2.16-2.05-6.52,23.31-25,7.65,7-25.13,23.11-7.09-2.2-2.08-20.07,6.15,5.56-19.89-2.16-2-6.39,22.86-25,7.65,7-25.13,22.65-6.95-2.19-2.08-19.62,6,5.43-19.45-2.16-2-6.26,22.41-24.95,7.65,7-25.13,22.21-6.81-2.2-2.08L1138,209.19l5.31-19-2.16-2.05-6.14,22-25,7.64,7-25.13,21.76-6.67-2.2-2.08L1118,189.61l5.18-18.55L1121,169l-6,21.52-25,7.65,7-25.13,21.3-6.53-2.19-2.09-18.27,5.6,5.06-18.1-2.16-2.05L1094.89,171,1070,178.6l7-25.13,20.85-6.39-2.2-2.08-17.81,5.46,4.94-17.66-2.17-2.05-5.76,20.62-25,7.65,7-25.13,20.4-6.25-2.2-2.08-17.36,5.32,4.81-17.21-2.16-2-5.64,20.17-25,7.65,7-25.13,19.94-6.11h0l-6.23-.83-12.86,3.94,1.52-5.45-.27,0-3.48,3.68-.76,2.72-2.56.78-3.68,3.88,5.4-1.65-7,25.13L1001.86,148l1.22-4.35-3.88,4.1-.33,1.17-1.1.33-3.67,3.88,3.93-1.2-7,25.13-25,7.65.78-2.8-7.09,7.49,2.48-.76-5,17.7,2.16,2.05,5.78-20.67,24.94-7.65-7,25.13-20.45,6.27,2.2,2.08,17.41-5.34-4.83,17.26,2.17,2.05,5.65-20.22,25-7.65-7,25.13-20,6.13,2.2,2.08,17-5.2-4.7,16.81,2.16,2,5.53-19.77,24.95-7.65-7,25.13-19.54,6,2.19,2.08,16.51-5.06-4.57,16.36,2.16,2.05,5.4-19.33,25-7.65-7,25.13-19.1,5.86,2.2,2.08,16-4.92-4.44,15.91,2.16,2.05L1045.5,266l25-7.65-7,25.13-18.65,5.72,2.2,2.08,15.61-4.79L1058.26,302l2.16,2.05,5.16-18.43,24.94-7.65-7,25.13-18.19,5.58,2.2,2.08,15.15-4.65-4.2,15,2.16,2.05,5-18,24.95-7.65-7,25.13-17.74,5.44,2.2,2.08,14.7-4.51-4.07,14.57,2.16,2.05,4.9-17.54,25-7.64-7,25.13-17.29,5.3,2.2,2.08,14.25-4.37-4,14.12.67.63,1.82.25,4.45-15.92,25-7.65-4.58,16.4L1150,349l3.7-13.22,12.44-3.82,3.68-3.88-15.28,4.68,7-25.13,24.94-7.65-4.15,14.85,3.88-4.09,3.26-11.67,11-3.37Zm-29.85-39.56-7,25.13-24.94,7.65,7-25.13Zm-20.07-19.57-7,25.13-25,7.65,7-25.14Zm-20.08-19.58-7,25.13-25,7.65,7-25.13Zm-20.07-19.58-7,25.13-24.95,7.65,7-25.13ZM1094.05,174l-7,25.13-25,7.65,7-25.13ZM1074,154.39l-7,25.13L1042,187.16l7-25.13Zm-20.07-19.58-7,25.13-25,7.65,7-25.13ZM1001,151l25-7.65-7,25.13L994,176.15Zm-14.89,53.27,7-25.13,25-7.64-7,25.13Zm35-33.69L1046,163l-7,25.13-24.95,7.65Zm-14.89,53.27,7-25.13,24.94-7.65-7,25.13Zm35-33.69,24.95-7.65-7,25.13-24.95,7.65Zm-14.89,53.27,7-25.13,25-7.65-7,25.13Zm35-33.7,24.94-7.64-7,25.13-25,7.64ZM1046.35,263l7-25.13,25-7.65-7,25.13Zm35-33.7,25-7.65-7,25.13-25,7.65Zm-14.89,53.28,7-25.13,25-7.65-7,25.13Zm35-33.7,24.95-7.65-7,25.13L1094.36,274Zm-14.89,53.27,7-25.13,25-7.65-7,25.13Zm35-33.69,25-7.65-7,25.13-25,7.65Zm-14.89,53.27,7-25.13,24.94-7.65-7,25.13Zm35-33.69,25-7.65-7,25.13-25,7.65Zm10.06,45.62-24.95,7.65,7-25.13,24.95-7.65Zm10.86-29.06,7-25.13,25-7.65-7,25.13Z"/></g><rect class="cls-2" x="1044.11" y="129.02" width="17.88" height="129.13" transform="translate(421.64 -671.12) rotate(43.45)"/><polygon class="cls-2" points="1188.09 308.82 1018.69 148.37 1030.81 135.57 1072.43 174.99 1200.21 296.02 1188.09 308.82"/><path class="cls-13" d="M1390.36,476.36s-98.5,16.23-220,16.23-220-16.23-220-16.23,98.51-16.24,220-16.24S1390.36,476.36,1390.36,476.36Z"/><path class="cls-14" d="M1182.19,368.09l-62.66-8.3-.24-.08-167.8-52.17a16.08,16.08,0,0,1-11.41-17.27l8.69-65.56c1.1-8.35,8.82-14.35,17.58-13.67l287,22.26L1212.65,350C1208.38,362.27,1195.57,369.86,1182.19,368.09Zm-61.42-13.72,62.15,8.24c10.65,1.41,20.86-4.64,24.26-14.39l38.35-110L965.94,216.56a10.55,10.55,0,0,0-11.45,8.9L945.8,291a10.48,10.48,0,0,0,7.42,11.25Z"/><path class="cls-14" d="M1311.75,179l-35.41,7.92a14,14,0,0,0-5.73,2.72A14.18,14.18,0,0,0,1266,196l-52.75,151.52-5.45-1.9,52.76-151.51a19.79,19.79,0,0,1,14.48-12.91l35-7.81a8.83,8.83,0,0,1,1.43,3.42A8.66,8.66,0,0,1,1311.75,179Z"/><rect class="cls-14" x="1090.48" y="117.83" width="2.77" height="287.65" transform="translate(689.07 1309.69) rotate(-82.45)"/><polygon class="cls-14" points="1218.66 325.28 945.07 273.93 945.6 271.22 1219.18 322.56 1218.66 325.28"/><polygon class="cls-14" points="1165.21 362.53 1162.48 361.61 1208.26 232.23 1210.99 233.14 1165.21 362.53"/><polygon class="cls-14" points="1121.62 356.75 1118.89 355.84 1164.67 226.45 1167.4 227.37 1121.62 356.75"/><polygon class="cls-14" points="1080.01 345.4 1077.28 344.48 1119.43 225.34 1122.16 226.25 1080.01 345.4"/><polygon class="cls-14" points="1038.98 332.39 1036.24 331.48 1075.02 221.89 1077.75 222.81 1038.98 332.39"/><polygon class="cls-14" points="997.82 319.75 995.09 318.84 1030.61 218.45 1033.34 219.36 997.82 319.75"/><polygon class="cls-14" points="957.39 305.04 954.66 304.13 986.2 215 988.92 215.92 957.39 305.04"/><path class="cls-14" d="M1311.69,180.14c-.49,3.72-3.42,6.59-8.76,7.23l-28.15,3.4a5.73,5.73,0,0,1-4.17-1.17,6,6,0,0,1-1.63-1.88,6.54,6.54,0,0,1-.67-1.74,6.69,6.69,0,0,1-.11-1.78,5.9,5.9,0,0,1,4.1-5.22l27.12-8.29c4.27-1.29,7.63-.53,9.76,1.61a7.21,7.21,0,0,1,.92,1.13,8.83,8.83,0,0,1,1.43,3.42,8.66,8.66,0,0,1,.22,2.11A6.57,6.57,0,0,1,1311.69,180.14Z"/><path class="cls-15" d="M1311.69,180.14c-.49,3.72-3.42,6.59-8.76,7.23l-28.15,3.4a5.73,5.73,0,0,1-4.17-1.17,6,6,0,0,1-1.63-1.88,6.54,6.54,0,0,1-.67-1.74,6.69,6.69,0,0,1-.11-1.78,5.9,5.9,0,0,1,4.1-5.22l27.12-8.29c4.27-1.29,7.63-.53,9.76,1.61a7.21,7.21,0,0,1,.92,1.13,8.83,8.83,0,0,1,1.43,3.42,8.66,8.66,0,0,1,.22,2.11A6.57,6.57,0,0,1,1311.69,180.14Z"/><path class="cls-9" d="M1311.69,180.13c-.49,3.73-3.41,6.6-8.76,7.25l-28.15,3.38a5.9,5.9,0,0,1-5.81-3c17-1,33-10.56,40.21-15.41a9,9,0,0,1,2.36,4.55A9.65,9.65,0,0,1,1311.69,180.13Z"/><path class="cls-14" d="M1304.05,184.73a6.16,6.16,0,1,1,4.75-7.3A6.15,6.15,0,0,1,1304.05,184.73Z"/><rect class="cls-14" x="1119.27" y="361.32" width="66.96" height="9.28" transform="translate(58.05 -148.23) rotate(7.55)"/><path class="cls-14" d="M911,417.74a2.89,2.89,0,0,1-1.78-4.78l17.49-19.66a27.19,27.19,0,0,1,23.91-8.88l239.86,31.77a9.17,9.17,0,0,0,9.85-12.15l-10-19.22a9.14,9.14,0,0,0-7.44-6l-97-12.85a2.89,2.89,0,0,1,.76-5.72l97,12.85a14.88,14.88,0,0,1,12.12,9.82l10,19.23a14.93,14.93,0,0,1-16,19.79L949.81,390.14a21.42,21.42,0,0,0-18.84,7l-17.49,19.65A2.87,2.87,0,0,1,911,417.74Z"/><polygon class="cls-14" points="973 404.76 953.82 402.22 962.04 386.84 981.22 389.38 973 404.76"/><path class="cls-16" d="M996.32,437.63a23.06,23.06,0,1,1-21.38-26h.19c.45,0,.9.08,1.36.14l1.17.18h0l.2,0A23.07,23.07,0,0,1,996.32,437.63Z"/><path class="cls-17" d="M986.26,436.29a12.91,12.91,0,1,1-12-14.58h.1l.76.07.66.11h0l.12,0A12.91,12.91,0,0,1,986.26,436.29Z"/><path class="cls-14" d="M952,399.91l-1,7.34h0l15.26,28.38a8.23,8.23,0,0,0,15.4-2.81l2.8-21.14,1-7.33Z"/><path class="cls-17" d="M985.44,404.35l-3.77,28.47a8.23,8.23,0,0,1-15.4,2.81l-4-7.46L951,407.24l1-7.32Z"/><path class="cls-9" d="M985.44,404.35l-3.77,28.47a8.23,8.23,0,0,1-15.4,2.81l-4-7.46c13.64-4.11,18.07-17.76,19.43-24.31Z"/><path class="cls-14" d="M976.8,435a3.37,3.37,0,1,1-3.12-3.81h0l.2,0,.17,0h0A3.36,3.36,0,0,1,976.8,435Z"/><polygon class="cls-14" points="1165.63 430.28 1146.44 427.74 1154.66 412.36 1173.85 414.9 1165.63 430.28"/><path class="cls-16" d="M1189,463.15a23.06,23.06,0,1,1-21.38-26h.18c.45,0,.91.07,1.36.14s.79.11,1.17.18h0l.21,0A23.08,23.08,0,0,1,1189,463.15Z"/><path class="cls-17" d="M1178.89,461.81a12.92,12.92,0,1,1-12-14.58h.1l.76.07.66.11h0l.11,0A12.92,12.92,0,0,1,1178.89,461.81Z"/><path class="cls-14" d="M1144.61,425.43l-1,7.34h0l15.27,28.38a8.23,8.23,0,0,0,15.4-2.81l2.8-21.14,1-7.33Z"/><path class="cls-17" d="M1178.06,429.87l-3.77,28.47a8.23,8.23,0,0,1-15.4,2.81l-4-7.46-11.24-20.93,1-7.32Z"/><path class="cls-9" d="M1178.06,429.87l-3.77,28.47a8.23,8.23,0,0,1-15.4,2.81l-4-7.46c13.63-4.12,18.06-17.76,19.42-24.31Z"/><path class="cls-14" d="M1169.43,460.56a3.37,3.37,0,1,1-3.13-3.81h0l.2,0,.17,0h0A3.37,3.37,0,0,1,1169.43,460.56Z"/><path class="cls-7" d="M1382.49,355.71a73.08,73.08,0,1,0-52.28,89.16A73.1,73.1,0,0,0,1382.49,355.71ZM1292,328a8,8,0,1,1,5.71-9.74A8,8,0,0,1,1292,328Z"/><path class="cls-2" d="M1288.22,318.84a1,1,0,0,1-1-.86c0-.14-2.22-14.32-17.74-30.57-14.38-15-43.43-34.94-100.2-44.44-27-3.56-46.84-14.12-58.83-31.39-19.26-27.76-11.29-63.64-11.21-64a1,1,0,0,1,2,.45c-.08.35-7.85,35.4,10.91,62.42,11.66,16.78,31,27.05,57.48,30.54,31.73,5.31,75.07,17.45,101.47,45.18,15.89,16.69,18.06,30.94,18.15,31.53a1,1,0,0,1-.85,1.13Z"/><g class="cls-18"><path class="cls-4" d="M1319.61,24.52a35.24,35.24,0,1,0,28.54,40.86A35.24,35.24,0,0,0,1319.61,24.52Zm-5.25,51.62-.9,5.11L1307,80.1l.87-4.89c-4.55-1.09-8.8-3.13-11.26-5.31l4.91-7.3a22.43,22.43,0,0,0,10.11,4.83c3.07.55,4.3.11,4.5-1,.72-4-17.67-4-15.54-16,.92-5.2,5.47-8.9,13.2-8.62l.89-5,6.5,1.15-.87,4.92a24.46,24.46,0,0,1,8.86,4.33l-4.67,7.29a20,20,0,0,0-8.54-4c-3.18-.57-4.35.17-4.55,1.27-.69,3.88,17.7,3.81,15.59,15.69C1326.07,72.48,1321.71,76.16,1314.36,76.14Z"/></g><g class="cls-18"><path class="cls-4" d="M829.66,361.1A35.24,35.24,0,1,0,858.2,402,35.25,35.25,0,0,0,829.66,361.1Zm-5.25,51.62-.91,5.12L817,416.68l.86-4.88c-4.54-1.1-8.79-3.13-11.25-5.32l4.91-7.3A22.34,22.34,0,0,0,821.64,404c3.07.54,4.3.1,4.5-1,.72-4-17.67-3.95-15.54-16,.92-5.2,5.47-8.91,13.2-8.62l.89-5,6.5,1.16-.87,4.92a24.46,24.46,0,0,1,8.86,4.33l-4.67,7.28a20.2,20.2,0,0,0-8.54-4c-3.18-.57-4.35.17-4.55,1.27-.69,3.88,17.7,3.82,15.59,15.69C836.12,409.07,831.76,412.75,824.41,412.72Z"/></g><g class="cls-18"><path class="cls-4" d="M1410.1,291.21a23.57,23.57,0,1,0,32.37,8A23.57,23.57,0,0,0,1410.1,291.21Zm20.12,28.28,1.79,3-3.77,2.29-1.72-2.84a18.49,18.49,0,0,1-8,2.28l-.74-5.84a14.81,14.81,0,0,0,7.21-2c1.79-1.08,2.21-1.84,1.83-2.48-1.43-2.36-10.64,5.8-14.86-1.18-1.83-3-1.17-6.9,2.84-10.16l-1.76-2.92,3.78-2.28,1.73,2.86a16.18,16.18,0,0,1,6.37-1.73l.86,5.72a13.47,13.47,0,0,0-6.06,1.77c-1.84,1.11-2.11,2-1.72,2.64,1.36,2.26,10.58-5.88,14.76,1C1434.5,312.49,1433.92,316.26,1430.22,319.49Z"/></g><g class="cls-18"><path class="cls-4" d="M725.29,122a18.77,18.77,0,1,0,25.78,6.35A18.78,18.78,0,0,0,725.29,122Zm16,22.52,1.43,2.37-3,1.82-1.37-2.26a14.69,14.69,0,0,1-6.37,1.82l-.6-4.65a11.88,11.88,0,0,0,5.75-1.61c1.42-.86,1.76-1.47,1.45-2-1.13-1.87-8.47,4.62-11.83-.94-1.45-2.41-.93-5.49,2.27-8.09l-1.41-2.32,3-1.82,1.38,2.28a13,13,0,0,1,5.07-1.38l.69,4.56a10.61,10.61,0,0,0-4.82,1.41c-1.48.89-1.69,1.59-1.38,2.1,1.09,1.8,8.43-4.68,11.75.81C744.72,138.93,744.26,141.93,741.31,144.5Z"/></g><polygon class="cls-10" points="1351.57 214.24 1403.77 230.38 1408.22 202.95 1351.57 214.24"/><polygon class="cls-10" points="845.71 241.62 795.24 216.66 786.23 243.84 845.71 241.62"/><polygon class="cls-10" points="1090.23 68.68 1098.19 20.67 1078.09 20.21 1090.23 68.68"/><path class="cls-10" d="M1405.89,130.53a8.35,8.35,0,1,1-11.45-2.9A8.34,8.34,0,0,1,1405.89,130.53Z"/><path class="cls-10" d="M896.09,318.25a8.35,8.35,0,1,1-11.45-2.89A8.35,8.35,0,0,1,896.09,318.25Z"/><path class="cls-10" d="M1318,273.86a5.32,5.32,0,1,1-7.29-1.84A5.32,5.32,0,0,1,1318,273.86Z"/><path class="cls-10" d="M993.49,70.65a5.32,5.32,0,1,1-7.29-1.85A5.31,5.31,0,0,1,993.49,70.65Z"/><text class="cls-19" transform="translate(120.62 409.81)">Shop N<tspan class="cls-20" x="45.54" y="0">o</tspan><tspan x="53.67" y="0">w</tspan></text><text class="cls-21" transform="translate(80.89 317.36)"><tspan class="cls-22">L</tspan><tspan x="6.44" y="0">o</tspan><tspan class="cls-23" x="14.16" y="0">r</tspan><tspan x="18.62" y="0">em ipsum dolor sit ame</tspan><tspan class="cls-24" x="156" y="0">t</tspan><tspan x="160.61" y="0">, </tspan><tspan class="cls-25" x="166.51" y="0">c</tspan><tspan x="172.72" y="0">onse</tspan><tspan class="cls-26" x="200.86" y="0">c</tspan><tspan class="cls-27" x="207.34" y="0">t</tspan><tspan x="211.91" y="0">etur adipiscing eli</tspan><tspan class="cls-24" x="315.69" y="0">t</tspan><tspan x="320.3" y="0">. </tspan><tspan class="cls-28" x="326.19" y="0">I</tspan><tspan class="cls-29" x="329.69" y="0">n</tspan><tspan class="cls-27" x="337.44" y="0">t</tspan><tspan x="342.01" y="0">eger </tspan><tspan x="-0.04" y="19.04">quam lo</tspan><tspan class="cls-23" x="48.15" y="19.04">r</tspan><tspan x="52.61" y="19.04">em, hend</tspan><tspan class="cls-23" x="107.86" y="19.04">r</tspan><tspan x="112.32" y="19.04">e</tspan><tspan class="cls-30" x="119.36" y="19.04">r</tspan><tspan class="cls-31" x="124.02" y="19.04">it et odio se</tspan><tspan class="cls-32" x="191.88" y="19.04">d</tspan><tspan x="199.67" y="19.04">, hend</tspan><tspan class="cls-23" x="236.15" y="19.04">r</tspan><tspan x="240.6" y="19.04">e</tspan><tspan class="cls-30" x="247.65" y="19.04">r</tspan><tspan x="252.3" y="19.04">it vulput</tspan><tspan class="cls-29" x="301.46" y="19.04">a</tspan><tspan class="cls-25" x="308.18" y="19.04">t</tspan><tspan x="312.75" y="19.04">e quam.</tspan></text><text class="cls-33" transform="translate(139.77 221.18)">BIG SALE!!</text><text class="cls-34" transform="translate(123.98 275.55)">UP<tspan class="cls-35" x="59.77" y="0"> </tspan><tspan class="cls-36" x="68.44" y="0">T</tspan><tspan class="cls-37" x="92.27" y="0">O 50% OFF</tspan></text><text class="cls-38" transform="translate(118.56 143.86)">SINGLE<tspan class="cls-39" x="135" y="0">S</tspan><tspan class="cls-40" x="156.64" y="0">’</tspan><tspan x="162.09" y="0"> </tspan><tspan class="cls-41" x="171.63" y="0">D</tspan><tspan class="cls-42" x="200.97" y="0">A</tspan><tspan x="224.95" y="0">Y</tspan></text><text class="cls-43" transform="translate(1258.75 422.81) rotate(-22.66)">11.11</text></g></g></svg>