<svg xmlns="http://www.w3.org/2000/svg" viewBox="0 0 1470 500.01"><defs><style>.cls-1{isolation:isolate;}.cls-16,.cls-17,.cls-19,.cls-2,.cls-22{fill:#fff;}.cls-12,.cls-3,.cls-6,.cls-8{mix-blend-mode:multiply;}.cls-3,.cls-8{opacity:0.4;}.cls-4{fill:#f5dba9;}.cls-5,.cls-8{fill:#ffbd69;}.cls-13,.cls-6{fill:#606060;}.cls-12,.cls-6{opacity:0.2;}.cls-7{fill:#2e3442;}.cls-9{mix-blend-mode:soft-light;}.cls-10,.cls-25,.cls-38{fill:#284289;}.cls-11{fill:#ef8229;}.cls-14,.cls-39{fill:#c10c44;}.cls-15{opacity:0.5;}.cls-16{font-size:104.41px;font-family:BitterRoman-Black, BitterRoman Black;}.cls-16,.cls-38{font-weight:800;}.cls-17{font-size:39.85px;font-family:Montserrat-Regular, Montserrat Regular;}.cls-18{letter-spacing:-0.02em;}.cls-19{font-size:15.98px;letter-spacing:0.13em;}.cls-19,.cls-22,.cls-39{font-family:Montserrat-Bold, Montserrat Bold;font-weight:700;}.cls-20{letter-spacing:0.09em;}.cls-21{letter-spacing:0.05em;}.cls-22{font-size:14.39px;}.cls-23{letter-spacing:-0.01em;}.cls-24{letter-spacing:0em;}.cls-25{font-size:12px;font-family:Montserrat-Medium, Montserrat Medium;font-weight:500;}.cls-26{letter-spacing:-0.01em;}.cls-27{letter-spacing:-0.01em;}.cls-28{letter-spacing:0em;}.cls-29{letter-spacing:0em;}.cls-30{letter-spacing:-0.01em;}.cls-31{letter-spacing:0.01em;}.cls-32{letter-spacing:-0.01em;}.cls-33{letter-spacing:0em;}.cls-34{letter-spacing:0.01em;}.cls-35{letter-spacing:0em;}.cls-36{letter-spacing:0em;}.cls-37{letter-spacing:0em;}.cls-38{font-size:171.89px;font-family:Montserrat-Black, Montserrat Black;letter-spacing:0.05em;}.cls-39{font-size:43.26px;}</style></defs><g class="cls-1"><g id="BANNER_1" data-name="BANNER 1"><path id="_Compound_Path_" data-name="&lt;Compound Path&gt;" class="cls-2" d="M825.61,0H0V500H1470V0Z" transform="translate(0 0)"/><g class="cls-3"><path class="cls-4" d="M1244.5,500H1470V368.82C1410.24,372.43,1308.87,395.15,1244.5,500Z" transform="translate(0 0)"/><path class="cls-4" d="M0,0V500H745.57C891.66,352.21,929.7,97.53,629.57,0Z" transform="translate(0 0)"/></g><path class="cls-5" d="M937.27,500H0V426.42C664.81,322.93,937.27,500,937.27,500Z" transform="translate(0 0)"/><path class="cls-5" d="M1082.61,0c-34.79,25.58-80.81,41.15-131.3,41.15S854.81,25.59,820,0Z" transform="translate(0 0)"/><path class="cls-5" d="M1470,309.53V421.67a61.2,61.2,0,0,1,0-112.14Z" transform="translate(0 0)"/><path class="cls-6" d="M765,447.67S600.6,471.62,397.76,471.62,30.51,447.67,30.51,447.67s164.42-23.95,367.25-23.95S765,447.67,765,447.67Z" transform="translate(0 0)"/><path class="cls-7" d="M577.07,187a2.75,2.75,0,0,0,2.07-2.89c-.6-10.37.82-21.68,5.83-30.71a26.4,26.4,0,0,1,11.26-11,32.08,32.08,0,0,1,14.78-3,30,30,0,0,1,14.29,3.71,25.4,25.4,0,0,1,10.15,11.11c4.28,8.77,5.27,19.78,4.24,30.09a2.61,2.61,0,0,0,2.09,3h0a2.81,2.81,0,0,0,2.89-2.79,81.67,81.67,0,0,0-.68-15.44,52.4,52.4,0,0,0-5.23-17.24A30,30,0,0,0,627,139.56a33,33,0,0,0-15.74-3.87A35.31,35.31,0,0,0,595,138.9a30.31,30.31,0,0,0-7.3,5.12,34.1,34.1,0,0,0-5.73,7.3,52.8,52.8,0,0,0-6.19,17.62,81.07,81.07,0,0,0-1.32,15.7,2.25,2.25,0,0,0,2.57,2.37Z" transform="translate(0 0)"/><polygon class="cls-5" points="729.27 449.29 503.15 449.29 522.36 196.7 703.45 179.82 729.27 449.29"/><polygon class="cls-8" points="729.28 449.28 503.16 449.28 522.36 196.7 673.01 182.65 703.45 179.81 729.28 449.28"/><polygon class="cls-6" points="729.28 449.28 503.16 449.28 522.36 196.7 673.01 182.65 704.69 411.94 729.28 449.28"/><polygon class="cls-5" points="693.4 449.28 503.16 449.28 505.1 423.68 523.82 177.62 672.75 177.62 690.69 413.41 693.4 449.28"/><path class="cls-8" d="M693.41,449.28H503.16l1.94-25.6c82.27,34,169.75,3.47,186.06-4.08Z" transform="translate(0 0)"/><polygon class="cls-6" points="580.54 449.28 503.16 449.28 505.1 423.68 523.82 177.62 553.51 177.62 580.54 449.28"/><g class="cls-9"><polygon class="cls-2" points="604.83 177.62 600.97 177.62 515.82 282.79 515.42 288.05 604.83 177.62"/><polygon class="cls-2" points="669.92 177.62 666.06 177.62 509.07 371.51 508.67 376.78 669.92 177.62"/><polygon class="cls-2" points="637.37 177.62 633.51 177.62 512.45 327.15 512.05 332.41 637.37 177.62"/><polygon class="cls-2" points="723.42 388.16 673.93 449.28 677.79 449.28 723.83 392.42 723.42 388.16"/><polygon class="cls-2" points="539.73 177.62 535.87 177.62 522.57 194.05 522.37 196.7 522.36 196.7 522.16 199.32 539.73 177.62"/><polygon class="cls-2" points="572.28 177.62 568.42 177.62 519.19 238.42 518.79 243.69 572.28 177.62"/><polygon class="cls-2" points="710.05 248.65 709.64 244.39 543.74 449.28 547.61 449.28 710.05 248.65"/><polygon class="cls-2" points="716.94 320.54 716.53 316.27 608.84 449.28 612.7 449.28 716.94 320.54"/><polygon class="cls-2" points="700.47 180.09 696.29 180.48 505.69 415.88 505.3 421.14 700.47 180.09"/><polygon class="cls-2" points="720.38 356.48 719.98 352.21 641.38 449.28 645.25 449.28 720.38 356.48"/><polygon class="cls-2" points="713.49 284.59 713.09 280.33 576.29 449.28 580.15 449.28 713.49 284.59"/><polygon class="cls-2" points="706.6 212.71 706.2 208.44 511.2 449.28 515.06 449.28 706.6 212.71"/></g><path class="cls-2" d="M561.43,185.07a4.82,4.82,0,1,1-4.82-4.82A4.81,4.81,0,0,1,561.43,185.07Z" transform="translate(0 0)"/><path class="cls-2" d="M626.73,185.07a4.82,4.82,0,1,1-4.81-4.82A4.81,4.81,0,0,1,626.73,185.07Z" transform="translate(0 0)"/><path class="cls-7" d="M556.7,187a2.74,2.74,0,0,0,2.07-2.89c-.6-10.37.82-21.68,5.84-30.71a26.34,26.34,0,0,1,11.26-11,32.08,32.08,0,0,1,14.78-3,30,30,0,0,1,14.28,3.71,25.34,25.34,0,0,1,10.15,11.11c4.28,8.77,5.27,19.78,4.24,30.09a2.62,2.62,0,0,0,2.09,3h0a2.8,2.8,0,0,0,2.89-2.79,80.85,80.85,0,0,0-.68-15.44,51.93,51.93,0,0,0-5.23-17.24,30,30,0,0,0-11.74-12.36,33,33,0,0,0-15.74-3.87,35.33,35.33,0,0,0-16.24,3.21,30.51,30.51,0,0,0-7.3,5.12,33.74,33.74,0,0,0-5.72,7.3,52.6,52.6,0,0,0-6.2,17.62,81.86,81.86,0,0,0-1.32,15.7A2.26,2.26,0,0,0,556.7,187Z" transform="translate(0 0)"/><path class="cls-7" d="M216.08,175.52c1.49,0,2.34-1.39,2.22-3.46-.81-13.65,1-28.62,6.41-40.71a33.94,33.94,0,0,1,12.13-14.92,29.7,29.7,0,0,1,15.85-4.49c5.38,0,10.72,1.17,15.28,4.33s8.34,8,10.81,14.26c4.54,11.41,5.53,25.88,4.38,39.52-.18,2,.82,3.11,2.47,3.14s2.76-.82,2.86-3a131.78,131.78,0,0,0-.64-20.33,79.07,79.07,0,0,0-5.51-22.53c-3-6.78-7.26-12.52-12.51-15.84S258.75,106.93,253,107a32.68,32.68,0,0,0-17.41,4.85,35.77,35.77,0,0,0-7.86,7,47.61,47.61,0,0,0-6.17,9.85,83,83,0,0,0-6.73,23.46,133.42,133.42,0,0,0-1.5,20.75C213.33,174.94,214.59,175.56,216.08,175.52Z" transform="translate(0 0)"/><polygon class="cls-10" points="351.51 431.26 110.33 430.36 128.25 160.72 267.86 155.68 303.06 160.71 332.27 158.28 351.51 431.26"/><polygon class="cls-6" points="303.06 160.71 269.78 155.96 274.85 430.94 351.51 431.26 332.27 158.28 303.06 160.71"/><polygon class="cls-6" points="303.06 160.71 306.12 396.02 274.85 430.94 351.51 431.26 317.33 394.89 303.06 160.71"/><path class="cls-2" d="M169.89,168.17a5.26,5.26,0,1,1-5.32-5.19A5.25,5.25,0,0,1,169.89,168.17Z" transform="translate(0 0)"/><path class="cls-2" d="M240,167.34a5.26,5.26,0,1,1-5.32-5.2A5.26,5.26,0,0,1,240,167.34Z" transform="translate(0 0)"/><path class="cls-7" d="M164.83,170.24c1.49,0,2.39-1.33,2.35-3.4-.24-13.66,2.16-28.57,8.07-40.5A34.51,34.51,0,0,1,188,111.78a30,30,0,0,1,16-4c5.38.2,10.67,1.47,15.1,4.76s8,8.29,10.22,14.56c4.07,11.53,4.48,26,2.77,39.62-.26,2,.7,3.14,2.35,3.22s2.78-.74,3-2.93a131.82,131.82,0,0,0,.19-20.34A77.82,77.82,0,0,0,233,124c-2.69-6.86-6.74-12.72-11.85-16.19s-10.89-4.87-16.65-5a32.91,32.91,0,0,0-17.6,4.35,36.3,36.3,0,0,0-8.13,6.8,48.13,48.13,0,0,0-6.57,9.66,84.12,84.12,0,0,0-7.68,23.26,134.58,134.58,0,0,0-2.35,20.69C162.1,169.58,163.34,170.24,164.83,170.24Z" transform="translate(0 0)"/><polygon class="cls-11" points="266.41 449.29 66.25 449.29 79.9 207.3 255.27 207.3 266.41 449.29"/><polygon class="cls-6" points="255.28 207.3 241.62 449.29 266.42 449.29 255.28 207.3"/><path class="cls-6" d="M255.28,207.29l-12.7,220.15c-57.74,9.78-141.11,9.12-175.38-1.29l-1,23.13H266.42Z" transform="translate(0 0)"/><polygon class="cls-6" points="255.27 207.3 266.41 449.29 214.99 449.29 239.07 207.3 255.27 207.3"/><g class="cls-12"><polygon class="cls-13" points="137.18 207.3 133.76 207.3 117.54 449.29 120.95 449.29 137.18 207.3"/><polygon class="cls-13" points="159.37 207.3 155.95 207.3 139.73 449.29 143.14 449.29 159.37 207.3"/><polygon class="cls-13" points="73.16 449.29 76.58 449.29 92.81 207.3 89.39 207.3 73.16 449.29"/><polygon class="cls-13" points="114.99 207.3 111.58 207.3 95.35 449.29 98.77 449.29 114.99 207.3"/><polygon class="cls-13" points="225.93 207.3 222.52 207.3 206.29 449.29 209.71 449.29 225.93 207.3"/><polygon class="cls-13" points="181.56 207.3 178.14 207.3 161.91 449.29 165.33 449.29 181.56 207.3"/><polygon class="cls-13" points="248.12 207.3 244.71 207.3 228.48 449.29 231.9 449.29 248.12 207.3"/><polygon class="cls-13" points="254.08 449.29 261.39 340.27 260 310.06 250.67 449.29 254.08 449.29"/><polygon class="cls-13" points="203.75 207.3 200.33 207.3 184.1 449.29 187.52 449.29 203.75 207.3"/></g><g class="cls-12"><polygon class="cls-13" points="69.61 389.66 69.41 393.3 263.83 393.3 263.67 389.66 69.61 389.66"/><polygon class="cls-13" points="70.95 365.93 70.75 369.57 262.74 369.57 262.57 365.93 70.95 365.93"/><polygon class="cls-13" points="72.29 342.2 72.09 345.84 261.65 345.84 261.48 342.2 72.29 342.2"/><polygon class="cls-13" points="266.02 440.76 265.85 437.12 66.94 437.12 66.73 440.76 266.02 440.76"/><polygon class="cls-13" points="68.28 413.39 68.07 417.03 264.93 417.03 264.76 413.39 68.28 413.39"/><polygon class="cls-13" points="78.99 223.54 78.78 227.19 256.19 227.19 256.02 223.54 78.99 223.54"/><polygon class="cls-13" points="76.31 271.01 76.1 274.65 258.37 274.65 258.2 271.01 76.31 271.01"/><polygon class="cls-13" points="77.65 247.28 77.44 250.92 257.28 250.92 257.11 247.28 77.65 247.28"/><polygon class="cls-13" points="73.63 318.47 73.43 322.11 260.56 322.11 260.39 318.47 73.63 318.47"/><polygon class="cls-13" points="74.97 294.74 74.76 298.38 259.46 298.38 259.3 294.74 74.97 294.74"/></g><path class="cls-2" d="M127,220.32a5.26,5.26,0,1,1-5.26-5.26A5.27,5.27,0,0,1,127,220.32Z" transform="translate(0 0)"/><path class="cls-2" d="M198.26,220.32a5.26,5.26,0,1,1-5.26-5.26A5.27,5.27,0,0,1,198.26,220.32Z" transform="translate(0 0)"/><path class="cls-7" d="M122,217.61a2.5,2.5,0,0,1,2.07,2.78c-1.31,10-.47,20.82,4.43,29.51a25.13,25.13,0,0,0,11.6,10.61,40.86,40.86,0,0,0,31.77-.53,28.27,28.27,0,0,0,11.78-10.61c5.22-8.4,7-19,6.53-28.87a2.74,2.74,0,0,1,2.47-2.9h0a2.72,2.72,0,0,1,3,2.69,70,70,0,0,1-1.72,14.82,48.62,48.62,0,0,1-6.8,16.53,33.64,33.64,0,0,1-13.59,11.79,41.47,41.47,0,0,1-17.43,3.63,41.74,41.74,0,0,1-17.52-3.17,31.08,31.08,0,0,1-7.65-5,30.76,30.76,0,0,1-5.78-7A43.89,43.89,0,0,1,119.45,235a68.46,68.46,0,0,1-.45-15.08,2.52,2.52,0,0,1,3-2.26Z" transform="translate(0 0)"/><path class="cls-7" d="M451.45,192.39h-8.38c.39-23.46.63-45.43.78-66l0-2.85v-2.11l0-.58,0-1.14c0-.39-.08-.78-.12-1.16,0-.78-.21-1.52-.33-2.27-.57-3-7.9-27.56-45.62-27.56S352.89,112,352.38,114.77c-1,4.57-1.05,42.4-.55,77.62h-8.25c.68-23.12,1.19-44.74,1.62-65l.05-2.86,0-1.43,0-.73,0-.85.07-1.71.19-1.74c.1-1.16.36-2.32.56-3.46a34.62,34.62,0,0,1,5.06-12,36.11,36.11,0,0,1,7.3-7.94,45.38,45.38,0,0,1,7.83-5.06,63.05,63.05,0,0,1,15.89-5.49,77.28,77.28,0,0,1,15.91-1.53A75.19,75.19,0,0,1,414,84.18a59.43,59.43,0,0,1,15.84,5.65A42.65,42.65,0,0,1,437.6,95a36.92,36.92,0,0,1,7,8,35.09,35.09,0,0,1,4.74,11.63,30.15,30.15,0,0,1,.55,3.27c.07.55.15,1.11.19,1.66l.1,1.68,0,.84,0,.73,0,1.41,0,2.87C450.6,147.51,451,169.2,451.45,192.39Z" transform="translate(0 0)"/><path class="cls-14" d="M567.73,462.52H227.8L253.63,138c97.9,10.09,194.11,10.8,288.28,0Z" transform="translate(0 0)"/><polygon class="cls-6" points="567.73 462.52 227.8 462.52 253.63 137.95 249.66 445.7 544.8 443.65 541.91 137.95 567.73 462.52"/><g class="cls-15"><path class="cls-5" d="M171.74,65.06c-11.84,0-11.86,18.4,0,18.4S183.6,65.06,171.74,65.06Z" transform="translate(0 0)"/><path class="cls-5" d="M444.51,32c-11.84,0-11.86,18.4,0,18.4S456.37,32,444.51,32Z" transform="translate(0 0)"/><path class="cls-5" d="M736.68,236c-11.84,0-11.86,18.4,0,18.4S748.54,236,736.68,236Z" transform="translate(0 0)"/><path class="cls-5" d="M602.88,96.78c-7.72,0-7.73,12,0,12S610.62,96.78,602.88,96.78Z" transform="translate(0 0)"/><path class="cls-5" d="M754.07,135.25c-7.72,0-7.74,12,0,12S761.8,135.25,754.07,135.25Z" transform="translate(0 0)"/><path class="cls-5" d="M50.75,171.62c-7.72,0-7.73,12,0,12S58.48,171.62,50.75,171.62Z" transform="translate(0 0)"/><path class="cls-5" d="M66.25,50.36c-7.08,0-7.09,11,0,11S73.34,50.36,66.25,50.36Z" transform="translate(0 0)"/><path class="cls-5" d="M326.36,65.06c-5.15,0-5.15,8,0,8S331.52,65.06,326.36,65.06Z" transform="translate(0 0)"/><path class="cls-5" d="M580.54,29.06c-5.15,0-5.15,8,0,8S585.7,29.06,580.54,29.06Z" transform="translate(0 0)"/><path class="cls-5" d="M805.36,195.32c-5.15,0-5.15,8,0,8S810.52,195.32,805.36,195.32Z" transform="translate(0 0)"/></g><path class="cls-14" d="M249.93,45.59c.25-.61,1.86-10.81,8.78-12.25,5.63-1.16,11.66,1.27,14.24,6.14a13,13,0,0,1,.86,9.58,36.16,36.16,0,0,1-4.62,10.33A83.15,83.15,0,0,1,259,72.58a.68.68,0,0,1-.7.28,76.57,76.57,0,0,1-19.85-6.53,26,26,0,0,1-8-5.92,12.28,12.28,0,0,1,4-18.92C241.87,37.8,249.74,45.47,249.93,45.59Z" transform="translate(0 0)"/><path class="cls-14" d="M94.32,112.14c.1-.41,0-7.08,4.26-8.74a8,8,0,0,1,11.31,8.35,23.67,23.67,0,0,1-1.81,7.08,54.34,54.34,0,0,1-5,9.49.42.42,0,0,1-.41.25,49.12,49.12,0,0,1-13.34-2,16.63,16.63,0,0,1-5.7-2.9,7.92,7.92,0,0,1,.47-12.46C88.35,108.06,94.19,112.09,94.32,112.14Z" transform="translate(0 0)"/><path class="cls-14" d="M534.52,79.06c.39-.16,5.81-4,9.61-1.51a8,8,0,0,1-.39,14.06,23.27,23.27,0,0,1-6.85,2.55,53.67,53.67,0,0,1-10.67,1.29.42.42,0,0,1-.44-.19,49,49,0,0,1-6-12.09,16.28,16.28,0,0,1-.88-6.33,7.91,7.91,0,0,1,10.49-6.74C534.45,71.83,534.49,78.92,534.52,79.06Z" transform="translate(0 0)"/><path class="cls-14" d="M686,100.5c.67-.31,9.83-7.47,16.63-3.33,5.52,3.36,8.62,10,7,16a14.7,14.7,0,0,1-6.64,8.55,41.16,41.16,0,0,1-11.74,5,95.1,95.1,0,0,1-18.51,3,.76.76,0,0,1-.78-.31,86.13,86.13,0,0,1-11.31-20.61,28.82,28.82,0,0,1-2-11,13.81,13.81,0,0,1,17.78-12.52C685.34,87.9,685.93,100.26,686,100.5Z" transform="translate(0 0)"/><path class="cls-11" d="M1228.08,398.44H1126.5A16.43,16.43,0,0,1,1110.07,382h0a16.43,16.43,0,0,1,16.43-16.42h101.58A16.42,16.42,0,0,1,1244.5,382h0A16.42,16.42,0,0,1,1228.08,398.44Z" transform="translate(0 0)"/><rect class="cls-2" x="284.28" y="358.19" width="215.19" height="2.39"/><path class="cls-14" d="M1390.11,269.07H948.6c-11.21,0-20.34-9.56-20.34-21.31V105c0-11.74,9.13-21.3,20.34-21.3h62.11a1.45,1.45,0,1,1,0,2.89H948.6c-9.62,0-17.45,8.26-17.45,18.41V247.76c0,10.16,7.83,18.41,17.45,18.41h441.51c9.63,0,17.46-8.25,17.46-18.41V105c0-10.15-7.83-18.41-17.46-18.41h-69.68a1.45,1.45,0,1,1,0-2.89h69.68c11.22,0,20.35,9.56,20.35,21.3V247.76C1410.46,259.51,1401.33,269.07,1390.11,269.07Z" transform="translate(0 0)"/><text class="cls-16" transform="translate(283.81 337.02)">50%</text><text class="cls-17" transform="translate(283.81 250.92)">DIS<tspan class="cls-18" x="55.71" y="0">C</tspan><tspan x="77.98" y="0">OUNT</tspan></text><text class="cls-19" transform="translate(284.32 385.2)">THIS<tspan class="cls-20" x="38.38" y="0"> </tspan><tspan x="43.27" y="0">WEEKEND ON</tspan><tspan class="cls-21" x="155.9" y="0">L</tspan><tspan x="164.18" y="0">Y</tspan></text><text class="cls-22" transform="translate(1146.26 386.39)">Shop N<tspan class="cls-23" x="43.68" y="0">o</tspan><tspan class="cls-24" x="51.47" y="0">w</tspan></text><text class="cls-25" transform="translate(1003.26 302.99)"><tspan class="cls-26">L</tspan><tspan x="5.5" y="0">o</tspan><tspan class="cls-27" x="12.08" y="0">r</tspan><tspan x="15.89" y="0">em ipsum dolor sit ame</tspan><tspan class="cls-28" x="133.13" y="0">t</tspan><tspan class="cls-29" x="137.06" y="0">, </tspan><tspan class="cls-30" x="142.09" y="0">c</tspan><tspan x="147.39" y="0">onse</tspan><tspan class="cls-31" x="171.4" y="0">c</tspan><tspan class="cls-32" x="176.94" y="0">t</tspan><tspan x="180.84" y="0">etur adipiscing eli</tspan><tspan class="cls-33" x="269.39" y="0">t</tspan><tspan x="273.33" y="0">. </tspan><tspan class="cls-34" x="278.36" y="0">I</tspan><tspan class="cls-35" x="281.34" y="0">n</tspan><tspan class="cls-30" x="287.96" y="0">t</tspan><tspan x="291.86" y="0">eger quam </tspan><tspan x="35.38" y="17.97">lo</tspan><tspan class="cls-27" x="44.8" y="17.97">r</tspan><tspan x="48.61" y="17.97">em, hend</tspan><tspan class="cls-27" x="95.75" y="17.97">r</tspan><tspan x="99.56" y="17.97">e</tspan><tspan class="cls-36" x="105.57" y="17.97">r</tspan><tspan class="cls-37" x="109.54" y="17.97">it et odio se</tspan><tspan class="cls-27" x="167.45" y="17.97">d</tspan><tspan x="174.1" y="17.97">, hend</tspan><tspan class="cls-27" x="205.23" y="17.97">r</tspan><tspan x="209.03" y="17.97">e</tspan><tspan class="cls-36" x="215.04" y="17.97">r</tspan><tspan x="219.01" y="17.97">it vulput</tspan><tspan class="cls-35" x="260.96" y="17.97">a</tspan><tspan class="cls-30" x="266.7" y="17.97">t</tspan><tspan x="270.6" y="17.97">e quam.</tspan></text><text class="cls-38" transform="translate(954.68 245.23)">11.11</text><text class="cls-39" transform="translate(1056.32 98.98)">SUPER SALE</text></g></g></svg>